<svg xmlns="http://www.w3.org/2000/svg" width="1018" height="259" fill="none"><mask id="a" width="618" height="234" x="303" y="7" fill="#000" maskUnits="userSpaceOnUse"><path fill="#fff" d="M303 7h618v234H303z"/><path d="M388.352 102.006c-4.088 5.451-9.149 9.393-15.184 11.826-6.035 2.336-12.118 3.504-18.25 3.504-7.787 0-14.746-1.411-20.878-4.234-6.132-2.92-11.339-6.813-15.622-11.68-4.283-4.867-7.543-10.463-9.782-16.79s-3.358-12.897-3.358-19.71c0-7.592 1.022-14.795 3.066-21.608 2.141-6.91 5.256-12.945 9.344-18.104 4.185-5.159 9.344-9.247 15.476-12.264 6.229-3.115 13.481-4.672 21.754-4.672 5.645 0 10.95.681 15.914 2.044 5.061 1.265 9.539 3.31 13.432 6.132 3.991 2.823 7.3 6.424 9.928 10.804 2.725 4.283 4.575 9.49 5.548 15.622h-13.87c-.681-3.99-1.947-7.397-3.796-10.22-1.849-2.92-4.137-5.305-6.862-7.154-2.725-1.85-5.84-3.212-9.344-4.088-3.407-.973-7.057-1.46-10.95-1.46-6.327 0-11.777 1.265-16.352 3.796-4.477 2.53-8.176 5.889-11.096 10.074-2.823 4.088-4.915 8.809-6.278 14.162-1.363 5.256-2.044 10.658-2.044 16.206 0 5.45.779 10.707 2.336 15.768 1.557 4.964 3.845 9.393 6.862 13.286 3.017 3.796 6.716 6.862 11.096 9.198 4.477 2.239 9.636 3.358 15.476 3.358 5.451 0 10.269-.876 14.454-2.628 4.185-1.752 7.689-4.137 10.512-7.154 2.92-3.115 5.11-6.716 6.57-10.804 1.46-4.185 2.093-8.663 1.898-13.432h-33.288v-11.68h45.698V115h-8.76l-3.65-12.994ZM474.315 115h-11.68v-11.972h-.292c-2.628 4.672-5.986 8.127-10.074 10.366-4.088 2.141-8.906 3.212-14.454 3.212-4.964 0-9.1-.633-12.41-1.898-3.309-1.363-5.986-3.261-8.03-5.694-2.044-2.433-3.504-5.305-4.38-8.614-.778-3.407-1.168-7.154-1.168-11.242v-49.64h12.41v51.1c0 4.672 1.363 8.37 4.088 11.096 2.726 2.725 6.473 4.088 11.242 4.088 3.796 0 7.057-.584 9.782-1.752 2.823-1.168 5.159-2.823 7.008-4.964 1.85-2.141 3.212-4.623 4.088-7.446.974-2.92 1.46-6.083 1.46-9.49V39.518h12.41V115Zm24.479-89.06h-12.41V10.756h12.41V25.94Zm-12.41 13.578h12.41V115h-12.41V39.518Zm33.387 38.398c0 3.504.438 6.96 1.314 10.366.974 3.31 2.385 6.278 4.234 8.906a21.634 21.634 0 0 0 7.3 6.278c3.018 1.557 6.522 2.336 10.512 2.336 4.186 0 7.738-.827 10.658-2.482 2.92-1.655 5.305-3.796 7.154-6.424 1.85-2.725 3.164-5.791 3.942-9.198a41.461 41.461 0 0 0 1.314-10.366c0-3.699-.438-7.251-1.314-10.658-.876-3.504-2.287-6.57-4.234-9.198-1.849-2.628-4.282-4.72-7.3-6.278-3.017-1.655-6.667-2.482-10.95-2.482-4.185 0-7.738.827-10.658 2.482-2.92 1.655-5.256 3.845-7.008 6.57-1.752 2.725-3.017 5.84-3.796 9.344a49.696 49.696 0 0 0-1.168 10.804Zm58.4 37.084h-12.41v-10.22h-.292c-2.044 4.185-5.256 7.203-9.636 9.052-4.38 1.849-9.198 2.774-14.454 2.774-5.84 0-10.95-1.071-15.33-3.212-4.282-2.141-7.884-5.013-10.804-8.614-2.822-3.601-4.964-7.787-6.424-12.556-1.46-4.77-2.19-9.83-2.19-15.184 0-5.353.682-10.415 2.044-15.184 1.46-4.77 3.602-8.906 6.424-12.41 2.92-3.601 6.522-6.424 10.804-8.468 4.38-2.141 9.442-3.212 15.184-3.212 1.947 0 4.04.195 6.278.584 2.239.39 4.478 1.07 6.716 2.044a24.012 24.012 0 0 1 6.278 3.65c2.044 1.46 3.748 3.31 5.11 5.548h.292V10.756h12.41V115Zm64.207-44.968a24.293 24.293 0 0 0-2.044-8.322c-1.07-2.628-2.579-4.867-4.526-6.716-1.849-1.947-4.088-3.455-6.716-4.526-2.53-1.168-5.353-1.752-8.468-1.752-3.212 0-6.132.584-8.76 1.752a19.37 19.37 0 0 0-6.57 4.526c-1.849 1.947-3.309 4.234-4.38 6.862-1.07 2.53-1.703 5.256-1.898 8.176h43.362Zm11.972 21.024c-1.654 8.468-5.304 14.843-10.95 19.126-5.645 4.283-12.75 6.424-21.316 6.424-6.034 0-11.29-.973-15.768-2.92-4.38-1.947-8.078-4.672-11.096-8.176-3.017-3.504-5.304-7.69-6.862-12.556-1.46-4.867-2.287-10.171-2.482-15.914 0-5.743.876-10.999 2.628-15.768 1.752-4.77 4.186-8.906 7.3-12.41 3.212-3.504 6.96-6.23 11.242-8.176 4.38-1.947 9.15-2.92 14.308-2.92 6.716 0 12.264 1.411 16.644 4.234 4.478 2.725 8.03 6.23 10.658 10.512 2.726 4.283 4.575 8.955 5.548 14.016 1.071 5.061 1.509 9.88 1.314 14.454h-56.502c-.097 3.31.292 6.473 1.168 9.49a22.128 22.128 0 0 0 4.234 7.884c1.947 2.239 4.429 4.039 7.446 5.402 3.018 1.363 6.57 2.044 10.658 2.044 5.256 0 9.539-1.217 12.848-3.65 3.407-2.433 5.646-6.132 6.716-11.096h12.264Zm7.462-80.3h12.41V115h-12.41V10.756Zm37.476 15.184h-12.41V10.756h12.41V25.94Zm-12.41 13.578h12.41V115h-12.41V39.518Zm24.335 0h11.68V51.49h.292c5.158-9.15 13.334-13.724 24.528-13.724 4.964 0 9.1.681 12.41 2.044 3.309 1.363 5.986 3.26 8.03 5.694 2.044 2.433 3.455 5.353 4.234 8.76.876 3.31 1.314 7.008 1.314 11.096V115h-12.41V63.9c0-4.672-1.363-8.37-4.088-11.096-2.726-2.725-6.473-4.088-11.242-4.088-3.796 0-7.106.584-9.928 1.752-2.726 1.168-5.013 2.823-6.862 4.964-1.85 2.141-3.261 4.672-4.234 7.592-.876 2.823-1.314 5.937-1.314 9.344V115h-12.41V39.518Zm126.241 30.514a24.316 24.316 0 0 0-2.044-8.322c-1.071-2.628-2.58-4.867-4.526-6.716-1.85-1.947-4.088-3.455-6.716-4.526-2.531-1.168-5.354-1.752-8.468-1.752-3.212 0-6.132.584-8.76 1.752-2.531 1.07-4.721 2.58-6.57 4.526-1.85 1.947-3.31 4.234-4.38 6.862-1.071 2.53-1.704 5.256-1.898 8.176h43.362Zm11.972 21.024c-1.655 8.468-5.305 14.843-10.95 19.126-5.646 4.283-12.751 6.424-21.316 6.424-6.035 0-11.291-.973-15.768-2.92-4.38-1.947-8.079-4.672-11.096-8.176-3.018-3.504-5.305-7.69-6.862-12.556-1.46-4.867-2.288-10.171-2.482-15.914 0-5.743.876-10.999 2.628-15.768 1.752-4.77 4.185-8.906 7.3-12.41 3.212-3.504 6.959-6.23 11.242-8.176 4.38-1.947 9.149-2.92 14.308-2.92 6.716 0 12.264 1.411 16.644 4.234 4.477 2.725 8.03 6.23 10.658 10.512 2.725 4.283 4.574 8.955 5.548 14.016 1.07 5.061 1.508 9.88 1.314 14.454h-56.502c-.098 3.31.292 6.473 1.168 9.49a22.112 22.112 0 0 0 4.234 7.884c1.946 2.239 4.428 4.039 7.446 5.402 3.017 1.363 6.57 2.044 10.658 2.044 5.256 0 9.538-1.217 12.848-3.65 3.406-2.433 5.645-6.132 6.716-11.096h12.264Zm18.704.146c.097 2.725.73 5.061 1.898 7.008a14.35 14.35 0 0 0 4.526 4.526c1.946 1.071 4.088 1.849 6.424 2.336 2.433.487 4.915.73 7.446.73 1.946 0 3.99-.146 6.132-.438 2.141-.292 4.088-.827 5.84-1.606 1.849-.779 3.358-1.898 4.526-3.358 1.168-1.557 1.752-3.504 1.752-5.84 0-3.212-1.217-5.645-3.65-7.3-2.434-1.655-5.5-2.969-9.198-3.942-3.602-1.07-7.544-1.995-11.826-2.774-4.283-.876-8.274-2.044-11.972-3.504-3.602-1.557-6.619-3.699-9.052-6.424-2.434-2.725-3.65-6.521-3.65-11.388 0-3.796.827-7.057 2.482-9.782 1.752-2.725 3.942-4.915 6.57-6.57 2.725-1.752 5.742-3.017 9.052-3.796 3.406-.876 6.764-1.314 10.074-1.314 4.282 0 8.224.39 11.826 1.168 3.601.681 6.764 1.947 9.49 3.796 2.822 1.752 5.061 4.185 6.716 7.3 1.654 3.017 2.628 6.813 2.92 11.388h-12.41c-.195-2.433-.828-4.429-1.898-5.986-1.071-1.655-2.434-2.969-4.088-3.942-1.655-.973-3.504-1.655-5.548-2.044a24.587 24.587 0 0 0-5.986-.73c-1.85 0-3.748.146-5.694.438-1.85.292-3.553.827-5.11 1.606-1.558.681-2.823 1.655-3.796 2.92-.974 1.168-1.46 2.725-1.46 4.672 0 2.141.73 3.942 2.19 5.402 1.557 1.363 3.504 2.53 5.84 3.504 2.336.876 4.964 1.655 7.884 2.336 2.92.584 5.84 1.217 8.76 1.898a88.268 88.268 0 0 1 9.052 2.482c3.017.973 5.645 2.287 7.884 3.942a17.207 17.207 0 0 1 5.548 5.986c1.46 2.433 2.19 5.45 2.19 9.052 0 4.575-.974 8.371-2.92 11.388-1.85 3.017-4.332 5.451-7.446 7.3-3.018 1.849-6.473 3.115-10.366 3.796a56.514 56.514 0 0 1-11.388 1.168c-4.186 0-8.176-.438-11.972-1.314-3.796-.876-7.154-2.287-10.074-4.234-2.92-2.044-5.256-4.672-7.008-7.884-1.752-3.31-2.726-7.3-2.92-11.972h12.41Zm-549.712 93.676c0 5.256.681 10.463 2.044 15.622 1.363 5.061 3.504 9.636 6.424 13.724 2.92 4.088 6.667 7.397 11.242 9.928 4.575 2.433 10.025 3.65 16.352 3.65s11.777-1.217 16.352-3.65c4.575-2.531 8.322-5.84 11.242-9.928 2.92-4.088 5.061-8.663 6.424-13.724a60.913 60.913 0 0 0 2.044-15.622c0-5.256-.681-10.415-2.044-15.476-1.363-5.159-3.504-9.782-6.424-13.87-2.92-4.088-6.667-7.349-11.242-9.782-4.575-2.531-10.025-3.796-16.352-3.796s-11.777 1.265-16.352 3.796c-4.575 2.433-8.322 5.694-11.242 9.782-2.92 4.088-5.061 8.711-6.424 13.87a59.256 59.256 0 0 0-2.044 15.476Zm-13.87 0c0-7.105 1.022-13.919 3.066-20.44 2.141-6.619 5.305-12.459 9.49-17.52 4.185-5.061 9.393-9.101 15.622-12.118 6.229-3.017 13.481-4.526 21.754-4.526 8.273 0 15.525 1.509 21.754 4.526 6.229 3.017 11.437 7.057 15.622 12.118 4.185 5.061 7.3 10.901 9.344 17.52 2.141 6.521 3.212 13.335 3.212 20.44s-1.071 13.967-3.212 20.586c-2.044 6.521-5.159 12.313-9.344 17.374-4.185 5.061-9.393 9.101-15.622 12.118-6.229 2.92-13.481 4.38-21.754 4.38-8.273 0-15.525-1.46-21.754-4.38-6.229-3.017-11.437-7.057-15.622-12.118-4.185-5.061-7.349-10.853-9.49-17.374-2.044-6.619-3.066-13.481-3.066-20.586Zm107.422-23.36h11.68v11.972h.292c5.158-9.149 13.334-13.724 24.528-13.724 4.964 0 9.1.681 12.41 2.044 3.309 1.363 5.986 3.261 8.03 5.694 2.044 2.433 3.455 5.353 4.234 8.76.876 3.309 1.314 7.008 1.314 11.096V237h-12.41v-51.1c0-4.672-1.363-8.371-4.088-11.096-2.726-2.725-6.473-4.088-11.242-4.088-3.796 0-7.106.584-9.928 1.752-2.726 1.168-5.013 2.823-6.862 4.964-1.85 2.141-3.261 4.672-4.234 7.592-.876 2.823-1.314 5.937-1.314 9.344V237h-12.41v-75.482Zm74.557-28.762h12.41V237h-12.41V132.756Zm37.475 15.184h-12.41v-15.184h12.41v15.184Zm-12.41 13.578h12.41V237h-12.41v-75.482Zm24.335 0h11.68v11.972h.292c5.159-9.149 13.335-13.724 24.528-13.724 4.964 0 9.101.681 12.41 2.044 3.31 1.363 5.986 3.261 8.03 5.694 2.044 2.433 3.456 5.353 4.234 8.76.876 3.309 1.314 7.008 1.314 11.096V237h-12.41v-51.1c0-4.672-1.362-8.371-4.088-11.096-2.725-2.725-6.472-4.088-11.242-4.088-3.796 0-7.105.584-9.928 1.752-2.725 1.168-5.012 2.823-6.862 4.964-1.849 2.141-3.26 4.672-4.234 7.592-.876 2.823-1.314 5.937-1.314 9.344V237h-12.41v-75.482Zm126.241 30.514a24.316 24.316 0 0 0-2.044-8.322c-1.071-2.628-2.579-4.867-4.526-6.716-1.849-1.947-4.088-3.455-6.716-4.526-2.531-1.168-5.353-1.752-8.468-1.752-3.212 0-6.132.584-8.76 1.752-2.531 1.071-4.721 2.579-6.57 4.526-1.849 1.947-3.309 4.234-4.38 6.862-1.071 2.531-1.703 5.256-1.898 8.176h43.362Zm11.972 21.024c-1.655 8.468-5.305 14.843-10.95 19.126-5.645 4.283-12.751 6.424-21.316 6.424-6.035 0-11.291-.973-15.768-2.92-4.38-1.947-8.079-4.672-11.096-8.176-3.017-3.504-5.305-7.689-6.862-12.556-1.46-4.867-2.287-10.171-2.482-15.914 0-5.743.876-10.999 2.628-15.768 1.752-4.769 4.185-8.906 7.3-12.41 3.212-3.504 6.959-6.229 11.242-8.176 4.38-1.947 9.149-2.92 14.308-2.92 6.716 0 12.264 1.411 16.644 4.234 4.477 2.725 8.03 6.229 10.658 10.512 2.725 4.283 4.575 8.955 5.548 14.016 1.071 5.061 1.509 9.879 1.314 14.454h-56.502c-.097 3.309.292 6.473 1.168 9.49a22.112 22.112 0 0 0 4.234 7.884c1.947 2.239 4.429 4.039 7.446 5.402 3.017 1.363 6.57 2.044 10.658 2.044 5.256 0 9.539-1.217 12.848-3.65 3.407-2.433 5.645-6.132 6.716-11.096h12.264Z"/></mask><path fill="#1E1E1E" d="M388.352 102.006c-4.088 5.451-9.149 9.393-15.184 11.826-6.035 2.336-12.118 3.504-18.25 3.504-7.787 0-14.746-1.411-20.878-4.234-6.132-2.92-11.339-6.813-15.622-11.68-4.283-4.867-7.543-10.463-9.782-16.79s-3.358-12.897-3.358-19.71c0-7.592 1.022-14.795 3.066-21.608 2.141-6.91 5.256-12.945 9.344-18.104 4.185-5.159 9.344-9.247 15.476-12.264 6.229-3.115 13.481-4.672 21.754-4.672 5.645 0 10.95.681 15.914 2.044 5.061 1.265 9.539 3.31 13.432 6.132 3.991 2.823 7.3 6.424 9.928 10.804 2.725 4.283 4.575 9.49 5.548 15.622h-13.87c-.681-3.99-1.947-7.397-3.796-10.22-1.849-2.92-4.137-5.305-6.862-7.154-2.725-1.85-5.84-3.212-9.344-4.088-3.407-.973-7.057-1.46-10.95-1.46-6.327 0-11.777 1.265-16.352 3.796-4.477 2.53-8.176 5.889-11.096 10.074-2.823 4.088-4.915 8.809-6.278 14.162-1.363 5.256-2.044 10.658-2.044 16.206 0 5.45.779 10.707 2.336 15.768 1.557 4.964 3.845 9.393 6.862 13.286 3.017 3.796 6.716 6.862 11.096 9.198 4.477 2.239 9.636 3.358 15.476 3.358 5.451 0 10.269-.876 14.454-2.628 4.185-1.752 7.689-4.137 10.512-7.154 2.92-3.115 5.11-6.716 6.57-10.804 1.46-4.185 2.093-8.663 1.898-13.432h-33.288v-11.68h45.698V115h-8.76l-3.65-12.994ZM474.315 115h-11.68v-11.972h-.292c-2.628 4.672-5.986 8.127-10.074 10.366-4.088 2.141-8.906 3.212-14.454 3.212-4.964 0-9.1-.633-12.41-1.898-3.309-1.363-5.986-3.261-8.03-5.694-2.044-2.433-3.504-5.305-4.38-8.614-.778-3.407-1.168-7.154-1.168-11.242v-49.64h12.41v51.1c0 4.672 1.363 8.37 4.088 11.096 2.726 2.725 6.473 4.088 11.242 4.088 3.796 0 7.057-.584 9.782-1.752 2.823-1.168 5.159-2.823 7.008-4.964 1.85-2.141 3.212-4.623 4.088-7.446.974-2.92 1.46-6.083 1.46-9.49V39.518h12.41V115Zm24.479-89.06h-12.41V10.756h12.41V25.94Zm-12.41 13.578h12.41V115h-12.41V39.518Zm33.387 38.398c0 3.504.438 6.96 1.314 10.366.974 3.31 2.385 6.278 4.234 8.906a21.634 21.634 0 0 0 7.3 6.278c3.018 1.557 6.522 2.336 10.512 2.336 4.186 0 7.738-.827 10.658-2.482 2.92-1.655 5.305-3.796 7.154-6.424 1.85-2.725 3.164-5.791 3.942-9.198a41.461 41.461 0 0 0 1.314-10.366c0-3.699-.438-7.251-1.314-10.658-.876-3.504-2.287-6.57-4.234-9.198-1.849-2.628-4.282-4.72-7.3-6.278-3.017-1.655-6.667-2.482-10.95-2.482-4.185 0-7.738.827-10.658 2.482-2.92 1.655-5.256 3.845-7.008 6.57-1.752 2.725-3.017 5.84-3.796 9.344a49.696 49.696 0 0 0-1.168 10.804Zm58.4 37.084h-12.41v-10.22h-.292c-2.044 4.185-5.256 7.203-9.636 9.052-4.38 1.849-9.198 2.774-14.454 2.774-5.84 0-10.95-1.071-15.33-3.212-4.282-2.141-7.884-5.013-10.804-8.614-2.822-3.601-4.964-7.787-6.424-12.556-1.46-4.77-2.19-9.83-2.19-15.184 0-5.353.682-10.415 2.044-15.184 1.46-4.77 3.602-8.906 6.424-12.41 2.92-3.601 6.522-6.424 10.804-8.468 4.38-2.141 9.442-3.212 15.184-3.212 1.947 0 4.04.195 6.278.584 2.239.39 4.478 1.07 6.716 2.044a24.012 24.012 0 0 1 6.278 3.65c2.044 1.46 3.748 3.31 5.11 5.548h.292V10.756h12.41V115Zm64.207-44.968a24.293 24.293 0 0 0-2.044-8.322c-1.07-2.628-2.579-4.867-4.526-6.716-1.849-1.947-4.088-3.455-6.716-4.526-2.53-1.168-5.353-1.752-8.468-1.752-3.212 0-6.132.584-8.76 1.752a19.37 19.37 0 0 0-6.57 4.526c-1.849 1.947-3.309 4.234-4.38 6.862-1.07 2.53-1.703 5.256-1.898 8.176h43.362Zm11.972 21.024c-1.654 8.468-5.304 14.843-10.95 19.126-5.645 4.283-12.75 6.424-21.316 6.424-6.034 0-11.29-.973-15.768-2.92-4.38-1.947-8.078-4.672-11.096-8.176-3.017-3.504-5.304-7.69-6.862-12.556-1.46-4.867-2.287-10.171-2.482-15.914 0-5.743.876-10.999 2.628-15.768 1.752-4.77 4.186-8.906 7.3-12.41 3.212-3.504 6.96-6.23 11.242-8.176 4.38-1.947 9.15-2.92 14.308-2.92 6.716 0 12.264 1.411 16.644 4.234 4.478 2.725 8.03 6.23 10.658 10.512 2.726 4.283 4.575 8.955 5.548 14.016 1.071 5.061 1.509 9.88 1.314 14.454h-56.502c-.097 3.31.292 6.473 1.168 9.49a22.128 22.128 0 0 0 4.234 7.884c1.947 2.239 4.429 4.039 7.446 5.402 3.018 1.363 6.57 2.044 10.658 2.044 5.256 0 9.539-1.217 12.848-3.65 3.407-2.433 5.646-6.132 6.716-11.096h12.264Zm7.462-80.3h12.41V115h-12.41V10.756Zm37.476 15.184h-12.41V10.756h12.41V25.94Zm-12.41 13.578h12.41V115h-12.41V39.518Zm24.335 0h11.68V51.49h.292c5.158-9.15 13.334-13.724 24.528-13.724 4.964 0 9.1.681 12.41 2.044 3.309 1.363 5.986 3.26 8.03 5.694 2.044 2.433 3.455 5.353 4.234 8.76.876 3.31 1.314 7.008 1.314 11.096V115h-12.41V63.9c0-4.672-1.363-8.37-4.088-11.096-2.726-2.725-6.473-4.088-11.242-4.088-3.796 0-7.106.584-9.928 1.752-2.726 1.168-5.013 2.823-6.862 4.964-1.85 2.141-3.261 4.672-4.234 7.592-.876 2.823-1.314 5.937-1.314 9.344V115h-12.41V39.518Zm126.241 30.514a24.316 24.316 0 0 0-2.044-8.322c-1.071-2.628-2.58-4.867-4.526-6.716-1.85-1.947-4.088-3.455-6.716-4.526-2.531-1.168-5.354-1.752-8.468-1.752-3.212 0-6.132.584-8.76 1.752-2.531 1.07-4.721 2.58-6.57 4.526-1.85 1.947-3.31 4.234-4.38 6.862-1.071 2.53-1.704 5.256-1.898 8.176h43.362Zm11.972 21.024c-1.655 8.468-5.305 14.843-10.95 19.126-5.646 4.283-12.751 6.424-21.316 6.424-6.035 0-11.291-.973-15.768-2.92-4.38-1.947-8.079-4.672-11.096-8.176-3.018-3.504-5.305-7.69-6.862-12.556-1.46-4.867-2.288-10.171-2.482-15.914 0-5.743.876-10.999 2.628-15.768 1.752-4.77 4.185-8.906 7.3-12.41 3.212-3.504 6.959-6.23 11.242-8.176 4.38-1.947 9.149-2.92 14.308-2.92 6.716 0 12.264 1.411 16.644 4.234 4.477 2.725 8.03 6.23 10.658 10.512 2.725 4.283 4.574 8.955 5.548 14.016 1.07 5.061 1.508 9.88 1.314 14.454h-56.502c-.098 3.31.292 6.473 1.168 9.49a22.112 22.112 0 0 0 4.234 7.884c1.946 2.239 4.428 4.039 7.446 5.402 3.017 1.363 6.57 2.044 10.658 2.044 5.256 0 9.538-1.217 12.848-3.65 3.406-2.433 5.645-6.132 6.716-11.096h12.264Zm18.704.146c.097 2.725.73 5.061 1.898 7.008a14.35 14.35 0 0 0 4.526 4.526c1.946 1.071 4.088 1.849 6.424 2.336 2.433.487 4.915.73 7.446.73 1.946 0 3.99-.146 6.132-.438 2.141-.292 4.088-.827 5.84-1.606 1.849-.779 3.358-1.898 4.526-3.358 1.168-1.557 1.752-3.504 1.752-5.84 0-3.212-1.217-5.645-3.65-7.3-2.434-1.655-5.5-2.969-9.198-3.942-3.602-1.07-7.544-1.995-11.826-2.774-4.283-.876-8.274-2.044-11.972-3.504-3.602-1.557-6.619-3.699-9.052-6.424-2.434-2.725-3.65-6.521-3.65-11.388 0-3.796.827-7.057 2.482-9.782 1.752-2.725 3.942-4.915 6.57-6.57 2.725-1.752 5.742-3.017 9.052-3.796 3.406-.876 6.764-1.314 10.074-1.314 4.282 0 8.224.39 11.826 1.168 3.601.681 6.764 1.947 9.49 3.796 2.822 1.752 5.061 4.185 6.716 7.3 1.654 3.017 2.628 6.813 2.92 11.388h-12.41c-.195-2.433-.828-4.429-1.898-5.986-1.071-1.655-2.434-2.969-4.088-3.942-1.655-.973-3.504-1.655-5.548-2.044a24.587 24.587 0 0 0-5.986-.73c-1.85 0-3.748.146-5.694.438-1.85.292-3.553.827-5.11 1.606-1.558.681-2.823 1.655-3.796 2.92-.974 1.168-1.46 2.725-1.46 4.672 0 2.141.73 3.942 2.19 5.402 1.557 1.363 3.504 2.53 5.84 3.504 2.336.876 4.964 1.655 7.884 2.336 2.92.584 5.84 1.217 8.76 1.898a88.268 88.268 0 0 1 9.052 2.482c3.017.973 5.645 2.287 7.884 3.942a17.207 17.207 0 0 1 5.548 5.986c1.46 2.433 2.19 5.45 2.19 9.052 0 4.575-.974 8.371-2.92 11.388-1.85 3.017-4.332 5.451-7.446 7.3-3.018 1.849-6.473 3.115-10.366 3.796a56.514 56.514 0 0 1-11.388 1.168c-4.186 0-8.176-.438-11.972-1.314-3.796-.876-7.154-2.287-10.074-4.234-2.92-2.044-5.256-4.672-7.008-7.884-1.752-3.31-2.726-7.3-2.92-11.972h12.41Zm-549.712 93.676c0 5.256.681 10.463 2.044 15.622 1.363 5.061 3.504 9.636 6.424 13.724 2.92 4.088 6.667 7.397 11.242 9.928 4.575 2.433 10.025 3.65 16.352 3.65s11.777-1.217 16.352-3.65c4.575-2.531 8.322-5.84 11.242-9.928 2.92-4.088 5.061-8.663 6.424-13.724a60.913 60.913 0 0 0 2.044-15.622c0-5.256-.681-10.415-2.044-15.476-1.363-5.159-3.504-9.782-6.424-13.87-2.92-4.088-6.667-7.349-11.242-9.782-4.575-2.531-10.025-3.796-16.352-3.796s-11.777 1.265-16.352 3.796c-4.575 2.433-8.322 5.694-11.242 9.782-2.92 4.088-5.061 8.711-6.424 13.87a59.256 59.256 0 0 0-2.044 15.476Zm-13.87 0c0-7.105 1.022-13.919 3.066-20.44 2.141-6.619 5.305-12.459 9.49-17.52 4.185-5.061 9.393-9.101 15.622-12.118 6.229-3.017 13.481-4.526 21.754-4.526 8.273 0 15.525 1.509 21.754 4.526 6.229 3.017 11.437 7.057 15.622 12.118 4.185 5.061 7.3 10.901 9.344 17.52 2.141 6.521 3.212 13.335 3.212 20.44s-1.071 13.967-3.212 20.586c-2.044 6.521-5.159 12.313-9.344 17.374-4.185 5.061-9.393 9.101-15.622 12.118-6.229 2.92-13.481 4.38-21.754 4.38-8.273 0-15.525-1.46-21.754-4.38-6.229-3.017-11.437-7.057-15.622-12.118-4.185-5.061-7.349-10.853-9.49-17.374-2.044-6.619-3.066-13.481-3.066-20.586Zm107.422-23.36h11.68v11.972h.292c5.158-9.149 13.334-13.724 24.528-13.724 4.964 0 9.1.681 12.41 2.044 3.309 1.363 5.986 3.261 8.03 5.694 2.044 2.433 3.455 5.353 4.234 8.76.876 3.309 1.314 7.008 1.314 11.096V237h-12.41v-51.1c0-4.672-1.363-8.371-4.088-11.096-2.726-2.725-6.473-4.088-11.242-4.088-3.796 0-7.106.584-9.928 1.752-2.726 1.168-5.013 2.823-6.862 4.964-1.85 2.141-3.261 4.672-4.234 7.592-.876 2.823-1.314 5.937-1.314 9.344V237h-12.41v-75.482Zm74.557-28.762h12.41V237h-12.41V132.756Zm37.475 15.184h-12.41v-15.184h12.41v15.184Zm-12.41 13.578h12.41V237h-12.41v-75.482Zm24.335 0h11.68v11.972h.292c5.159-9.149 13.335-13.724 24.528-13.724 4.964 0 9.101.681 12.41 2.044 3.31 1.363 5.986 3.261 8.03 5.694 2.044 2.433 3.456 5.353 4.234 8.76.876 3.309 1.314 7.008 1.314 11.096V237h-12.41v-51.1c0-4.672-1.362-8.371-4.088-11.096-2.725-2.725-6.472-4.088-11.242-4.088-3.796 0-7.105.584-9.928 1.752-2.725 1.168-5.012 2.823-6.862 4.964-1.849 2.141-3.26 4.672-4.234 7.592-.876 2.823-1.314 5.937-1.314 9.344V237h-12.41v-75.482Zm126.241 30.514a24.316 24.316 0 0 0-2.044-8.322c-1.071-2.628-2.579-4.867-4.526-6.716-1.849-1.947-4.088-3.455-6.716-4.526-2.531-1.168-5.353-1.752-8.468-1.752-3.212 0-6.132.584-8.76 1.752-2.531 1.071-4.721 2.579-6.57 4.526-1.849 1.947-3.309 4.234-4.38 6.862-1.071 2.531-1.703 5.256-1.898 8.176h43.362Zm11.972 21.024c-1.655 8.468-5.305 14.843-10.95 19.126-5.645 4.283-12.751 6.424-21.316 6.424-6.035 0-11.291-.973-15.768-2.92-4.38-1.947-8.079-4.672-11.096-8.176-3.017-3.504-5.305-7.689-6.862-12.556-1.46-4.867-2.287-10.171-2.482-15.914 0-5.743.876-10.999 2.628-15.768 1.752-4.769 4.185-8.906 7.3-12.41 3.212-3.504 6.959-6.229 11.242-8.176 4.38-1.947 9.149-2.92 14.308-2.92 6.716 0 12.264 1.411 16.644 4.234 4.477 2.725 8.03 6.229 10.658 10.512 2.725 4.283 4.575 8.955 5.548 14.016 1.071 5.061 1.509 9.879 1.314 14.454h-56.502c-.097 3.309.292 6.473 1.168 9.49a22.112 22.112 0 0 0 4.234 7.884c1.947 2.239 4.429 4.039 7.446 5.402 3.017 1.363 6.57 2.044 10.658 2.044 5.256 0 9.539-1.217 12.848-3.65 3.407-2.433 5.645-6.132 6.716-11.096h12.264Z"/><path fill="#1E1E1E" d="m388.352 102.006.722-.203-.411-1.462-.911 1.215.6.45Zm-15.184 11.826.271.699.009-.003-.28-.696Zm-39.128-.73-.322.677.008.004.314-.681Zm-15.622-11.68-.563.495.563-.495Zm-9.782-16.79-.707.25.707-.25Zm-.292-41.318-.716-.222-.002.007.718.215Zm9.344-18.104-.582-.473-.006.007.588.466Zm15.476-12.264.331.673.004-.002-.335-.671Zm37.668-2.628-.199.723.009.002.008.003.182-.728Zm13.432 6.132-.44.607.007.005.433-.612Zm9.928 10.804-.643.386.005.008.005.009.633-.403Zm5.548 15.622v.75h.878l-.137-.868-.741.118Zm-13.87 0-.739.126.106.624h.633v-.75Zm-3.796-10.22-.634.401.007.01.627-.411Zm-16.206-11.242-.206.721.012.004.012.003.182-.728Zm-27.302 2.336-.363-.656-.006.003.369.653ZM327.47 33.824l-.615-.43-.002.004.617.426Zm-6.278 14.162.726.188.001-.003-.727-.185Zm.292 31.974-.717.22.001.004.716-.224Zm6.862 13.286-.593.46.006.007.587-.467Zm11.096 9.198-.353.662.009.004.009.005.335-.671Zm29.93.73.29.692-.29-.692Zm10.512-7.154-.547-.513h-.001l.548.513Zm6.57-10.804.706.252.002-.005-.708-.247Zm1.898-13.432.749-.03-.029-.72h-.72v.75Zm-33.288 0h-.75v.75h.75v-.75Zm0-11.68v-.75h-.75v.75h.75Zm45.698 0h.75v-.75h-.75v.75Zm0 54.896v.75h.75V115h-.75Zm-8.76 0-.722.203.154.547h.568V115Zm-3.65-12.994-.6-.45c-4.01 5.347-8.963 9.201-14.864 11.58l.28.696.28.696c6.168-2.487 11.338-6.517 15.504-12.072l-.6-.45Zm-15.184 11.826-.271-.699c-5.953 2.304-11.945 3.453-17.979 3.453v1.5c6.23 0 12.405-1.187 18.521-3.555l-.271-.699Zm-18.25 3.504v-.75c-7.695 0-14.545-1.394-20.564-4.165l-.314.681-.314.681c6.245 2.875 13.314 4.303 21.192 4.303v-.75Zm-20.878-4.234.322-.677c-6.044-2.879-11.169-6.712-15.381-11.498l-.563.495-.563.495c4.353 4.947 9.643 8.901 15.863 11.862l.322-.677Zm-15.622-11.68.563-.495c-4.217-4.793-7.43-10.306-9.638-16.545l-.707.25-.707.25c2.269 6.414 5.578 12.094 9.926 17.035l.563-.495Zm-9.782-16.79.707-.25c-2.21-6.245-3.315-12.73-3.315-19.46h-1.5c0 6.897 1.133 13.552 3.401 19.96l.707-.25Zm-3.358-19.71h.75c0-7.524 1.013-14.654 3.034-21.392l-.718-.216-.718-.215c-2.067 6.887-3.098 14.163-3.098 21.823h.75Zm3.066-21.608.716.222c2.117-6.831 5.191-12.781 9.216-17.86l-.588-.466-.588-.466c-4.151 5.238-7.306 11.358-9.472 18.348l.716.222Zm9.344-18.104.582.473c4.115-5.073 9.188-9.093 15.225-12.064l-.331-.673-.331-.673c-6.227 3.064-11.472 7.22-15.727 12.465l.582.472Zm15.476-12.264.335.67c6.108-3.053 13.24-4.592 21.419-4.592v-1.5c-8.368 0-15.738 1.576-22.089 4.751l.335.671Zm21.754-4.672v.75c5.585 0 10.822.674 15.715 2.017l.199-.723.199-.723c-5.035-1.382-10.407-2.071-16.113-2.071v.75Zm15.914 2.044-.182.728c4.976 1.244 9.364 3.25 13.174 6.011l.44-.607.44-.607c-3.977-2.884-8.544-4.966-13.69-6.253l-.182.728Zm13.432 6.132-.433.612c3.902 2.76 7.141 6.283 9.718 10.578l.643-.386.643-.386c-2.679-4.465-6.058-8.145-10.138-11.03l-.433.612Zm9.928 10.804-.633.403c2.66 4.179 4.48 9.284 5.44 15.337l.741-.118.741-.118c-.986-6.21-2.865-11.52-5.656-15.907l-.633.403Zm5.548 15.622v-.75h-13.87v1.5h13.87v-.75Zm-13.87 0 .739-.126c-.695-4.073-1.992-7.58-3.908-10.505l-.627.411-.627.411c1.782 2.721 3.016 6.026 3.684 9.935l.739-.126Zm-3.796-10.22.634-.401c-1.902-3.003-4.26-5.464-7.075-7.374l-.421.621-.421.62c2.636 1.79 4.852 4.098 6.649 6.935l.634-.401Zm-6.862-7.154.421-.62c-2.805-1.904-6.002-3.3-9.583-4.196l-.182.728-.182.728c3.427.856 6.459 2.185 9.105 3.98l.421-.62Zm-9.344-4.088.206-.721c-3.48-.994-7.2-1.489-11.156-1.489v1.5c3.83 0 7.411.479 10.744 1.431l.206-.721Zm-10.95-1.46v-.75c-6.427 0-12.008 1.286-16.715 3.89l.363.656.363.656c4.442-2.457 9.763-3.702 15.989-3.702v-.75Zm-16.352 3.796-.369-.653c-4.574 2.585-8.357 6.02-11.342 10.298l.615.429.615.43c2.855-4.093 6.47-7.375 10.85-9.851l-.369-.653ZM327.47 33.824l-.617-.426c-2.879 4.169-5.006 8.973-6.388 14.403l.727.185.727.185c1.343-5.277 3.401-9.914 6.168-13.92l-.617-.427Zm-6.278 14.162-.726-.188c-1.379 5.319-2.068 10.784-2.068 16.394h1.5a63.58 63.58 0 0 1 2.02-16.018l-.726-.188Zm-2.044 16.206h-.75c0 5.523.789 10.854 2.369 15.989l.717-.221.717-.22c-1.535-4.988-2.303-10.17-2.303-15.548h-.75Zm2.336 15.768-.716.225c1.583 5.044 3.91 9.553 6.985 13.52l.593-.459.593-.46c-2.96-3.819-5.207-8.167-6.739-13.05l-.716.224Zm6.862 13.286-.587.467c3.083 3.878 6.862 7.01 11.33 9.393l.353-.662.353-.662c-4.292-2.289-7.91-5.289-10.862-9.003l-.587.467Zm11.096 9.198-.335.671c4.597 2.299 9.874 3.437 15.811 3.437v-1.5c-5.743 0-10.783-1.1-15.141-3.279l-.335.671Zm15.476 3.358v.75c5.531 0 10.45-.889 14.744-2.686l-.29-.692-.29-.692c-4.077 1.707-8.793 2.57-14.164 2.57v.75Zm14.454-2.628.29.692c4.273-1.789 7.868-4.232 10.77-7.334l-.548-.512-.548-.512c-2.743 2.932-6.156 5.259-10.254 6.974l.29.692Zm10.512-7.154.547.513c2.992-3.191 5.235-6.882 6.729-11.065l-.706-.252-.706-.252c-1.426 3.993-3.563 7.505-6.411 10.543l.547.513Zm6.57-10.804.708.247c1.494-4.281 2.138-8.853 1.939-13.71l-.749.031-.749.03c.191 4.683-.431 9.065-1.857 13.155l.708.247Zm1.898-13.432v-.75h-33.288v1.5h33.288v-.75Zm-33.288 0h.75v-11.68h-1.5v11.68h.75Zm0-11.68v.75h45.698v-1.5h-45.698v.75Zm45.698 0h-.75V115h1.5V60.104h-.75Zm0 54.896v-.75h-8.76v1.5h8.76V115Zm-8.76 0 .722-.203-3.65-12.994-.722.203-.722.203 3.65 12.994.722-.203Zm82.313 0v.75h.75V115h-.75Zm-11.68 0h-.75v.75h.75V115Zm0-11.972h.75v-.75h-.75v.75Zm-.292 0v-.75h-.438l-.215.382.653.368Zm-10.074 10.366.348.664.012-.006-.36-.658Zm-26.864 1.314-.285.694.008.003.009.004.268-.701Zm-8.03-5.694.574-.482-.574.482Zm-4.38-8.614-.731.167.003.013.003.012.725-.192Zm-1.168-60.882v-.75h-.75v.75h.75Zm12.41 0h.75v-.75h-.75v.75Zm4.088 62.196-.53.53.53-.53Zm21.024 2.336-.287-.693-.008.004.295.689Zm7.008-4.964.568.49-.568-.49Zm4.088-7.446-.711-.237-.003.007-.002.008.716.222Zm1.46-52.122v-.75h-.75v.75h.75Zm12.41 0h.75v-.75h-.75v.75Zm0 75.482v-.75h-11.68v1.5h11.68V115Zm-11.68 0h.75v-11.972h-1.5V115h.75Zm0-11.972v-.75h-.292v1.5h.292v-.75Zm-.292 0-.653-.368c-2.57 4.569-5.834 7.915-9.781 10.076l.36.658.36.658c4.229-2.316 7.682-5.881 10.368-10.656l-.654-.368Zm-10.074 10.366-.348-.664c-3.961 2.074-8.655 3.126-14.106 3.126v1.5c5.645 0 10.587-1.09 14.802-3.298l-.348-.664Zm-14.454 3.212v-.75c-4.906 0-8.945-.626-12.142-1.849l-.268.701-.268.701c3.422 1.308 7.657 1.947 12.678 1.947v-.75Zm-12.41-1.898.286-.694c-3.212-1.322-5.785-3.153-7.742-5.482l-.574.482-.574.482c2.131 2.538 4.912 4.503 8.319 5.906l.285-.694Zm-8.03-5.694.574-.482c-1.967-2.343-3.379-5.113-4.229-8.324l-.725.192-.725.192c.902 3.408 2.411 6.38 4.531 8.904l.574-.482Zm-4.38-8.614.731-.167c-.764-3.344-1.149-7.034-1.149-11.075h-1.5c0 4.135.394 7.94 1.187 11.409l.731-.167Zm-1.168-11.242h.75v-49.64h-1.5v49.64h.75Zm0-49.64v.75h12.41v-1.5h-12.41v.75Zm12.41 0h-.75v51.1h1.5v-51.1h-.75Zm0 51.1h-.75c0 4.826 1.413 8.731 4.308 11.626l.53-.53.531-.53c-2.556-2.556-3.869-6.048-3.869-10.566h-.75Zm4.088 11.096-.53.53c2.898 2.898 6.854 4.308 11.772 4.308v-1.5c-4.62 0-8.159-1.315-10.711-3.868l-.531.53Zm11.242 4.088v.75c3.87 0 7.237-.595 10.078-1.813l-.296-.689-.295-.689c-2.61 1.118-5.765 1.691-9.487 1.691v.75Zm9.782-1.752.287.693c2.922-1.209 5.357-2.93 7.289-5.167l-.568-.49-.567-.49c-1.767 2.046-4.004 3.634-6.728 4.761l.287.693Zm7.008-4.964.568.49c1.92-2.223 3.331-4.797 4.236-7.714l-.716-.222-.716-.222c-.847 2.728-2.161 5.118-3.939 7.178l.567.49Zm4.088-7.446.712.237c1.001-3.004 1.498-6.248 1.498-9.727h-1.5c0 3.335-.476 6.417-1.421 9.253l.711.237Zm1.46-9.49h.75V39.518h-1.5V82.15h.75Zm0-42.632v.75h12.41v-1.5h-12.41v.75Zm12.41 0h-.75V115h1.5V39.518h-.75Zm24.479-13.578v.75h.75v-.75h-.75Zm-12.41 0h-.75v.75h.75v-.75Zm0-15.184v-.75h-.75v.75h.75Zm12.41 0h.75v-.75h-.75v.75Zm-12.41 28.762v-.75h-.75v.75h.75Zm12.41 0h.75v-.75h-.75v.75Zm0 75.482v.75h.75V115h-.75Zm-12.41 0h-.75v.75h.75V115Zm12.41-89.06v-.75h-12.41v1.5h12.41v-.75Zm-12.41 0h.75V10.756h-1.5V25.94h.75Zm0-15.184v.75h12.41v-1.5h-12.41v.75Zm12.41 0h-.75V25.94h1.5V10.756h-.75Zm-12.41 28.762v.75h12.41v-1.5h-12.41v.75Zm12.41 0h-.75V115h1.5V39.518h-.75Zm0 75.482v-.75h-12.41v1.5h12.41V115Zm-12.41 0h.75V39.518h-1.5V115h.75Zm34.701-26.718-.726.187.003.012.004.013.719-.212Zm4.234 8.906-.613.432.005.007.006.007.602-.446Zm7.3 6.278-.353.662.009.004.344-.666Zm21.17-.146-.369-.653.369.653Zm7.154-6.424.614.432.007-.01-.621-.422Zm3.942-9.198-.726-.187-.002.01-.003.01.731.167Zm0-21.024-.727.182.001.005.726-.187Zm-4.234-9.198-.613.432.005.007.006.007.602-.446Zm-7.3-6.278-.36.658.008.004.008.005.344-.667Zm-21.608 0 .37.652-.37-.652Zm-7.008 6.57.631.406-.631-.406Zm-3.796 9.344.733.163-.733-.163ZM578.171 115v.75h.75V115h-.75Zm-12.41 0h-.75v.75h.75V115Zm0-10.22h.75v-.75h-.75v.75Zm-.292 0v-.75h-.468l-.206.421.674.329Zm-9.636 9.052.292.691-.292-.691Zm-29.784-.438-.335.671.006.003.329-.674Zm-10.804-8.614-.59.463.008.009.582-.472Zm-6.424-12.556-.717.22.717-.22Zm-.146-30.368-.717-.22-.004.014.721.206Zm6.424-12.41-.582-.472-.002.002.584.47Zm10.804-8.468.323.677.007-.003-.33-.674Zm28.178-.584-.299.688.013.005.013.005.273-.698Zm6.278 3.65-.468.586.016.012.016.012.436-.61Zm5.11 5.548-.64.39.219.36h.421v-.75Zm.292 0v.75h.75v-.75h-.75Zm0-38.836v-.75h-.75v.75h.75Zm12.41 0h.75v-.75h-.75v.75Zm-58.4 67.16h-.75a42.2 42.2 0 0 0 1.338 10.553l.726-.187.727-.187a40.682 40.682 0 0 1-1.291-10.179h-.75Zm1.314 10.366-.719.212c.995 3.382 2.44 6.426 4.34 9.126l.613-.432.614-.432c-1.799-2.556-3.176-5.45-4.128-8.686l-.72.212Zm4.234 8.906-.602.446c2.013 2.719 4.532 4.885 7.549 6.494l.353-.662.353-.662a20.88 20.88 0 0 1-7.05-6.062l-.603.446Zm7.3 6.278-.344.666c3.141 1.622 6.767 2.42 10.856 2.42v-1.5c-3.892 0-7.274-.759-10.168-2.252l-.344.666Zm10.512 2.336v.75c4.284 0 7.971-.847 11.028-2.579l-.37-.653-.369-.653c-2.783 1.577-6.201 2.385-10.289 2.385v.75Zm10.658-2.482.37.653c3.012-1.707 5.482-3.923 7.398-6.645l-.614-.432-.613-.432c-1.783 2.534-4.083 4.601-6.91 6.203l.369.653Zm7.154-6.424.621.421c1.905-2.807 3.254-5.96 4.053-9.452l-.732-.167-.731-.167c-.759 3.321-2.037 6.3-3.831 8.944l.62.421Zm3.942-9.198.727.187a42.24 42.24 0 0 0 1.337-10.553h-1.5c0 3.44-.43 6.833-1.29 10.18l.726.186Zm1.314-10.366h.75c0-3.758-.445-7.374-1.337-10.845l-.727.187-.726.187c.86 3.342 1.29 6.832 1.29 10.471h.75Zm-1.314-10.658.728-.182c-.897-3.59-2.348-6.747-4.359-9.462l-.603.446-.602.446c1.882 2.541 3.254 5.515 4.109 8.934l.727-.182Zm-4.234-9.198.614-.432c-1.923-2.732-4.451-4.903-7.57-6.512l-.344.666-.344.666c2.917 1.506 5.255 3.52 7.031 6.044l.613-.432Zm-7.3-6.278.361-.658c-3.152-1.728-6.932-2.574-11.311-2.574v1.5c4.187 0 7.707.809 10.59 2.39l.36-.658Zm-10.95-2.482v-.75c-4.283 0-7.97.847-11.027 2.58l.369.652.37.652c2.783-1.576 6.201-2.384 10.288-2.384v-.75Zm-10.658 2.482-.369-.653c-3.022 1.713-5.449 3.986-7.269 6.817l.63.406.631.406c1.684-2.62 3.929-4.727 6.747-6.324l-.37-.652Zm-7.008 6.57-.63-.406c-1.805 2.808-3.102 6.006-3.898 9.587l.732.163.733.163c.761-3.427 1.995-6.458 3.694-9.101l-.631-.406Zm-3.796 9.344-.732-.163a50.399 50.399 0 0 0-1.186 10.967h1.5c0-3.646.384-7.192 1.151-10.641l-.733-.163ZM578.171 115v-.75h-12.41v1.5h12.41V115Zm-12.41 0h.75v-10.22h-1.5V115h.75Zm0-10.22v-.75h-.292v1.5h.292v-.75Zm-.292 0-.674-.329c-1.962 4.019-5.036 6.91-9.253 8.69l.291.691.292.691c4.543-1.918 7.893-5.062 10.018-9.414l-.674-.329Zm-9.636 9.052-.291-.691c-4.279 1.806-8.996 2.715-14.163 2.715v1.5c5.346 0 10.265-.941 14.746-2.833l-.292-.691Zm-14.454 2.774v-.75c-5.748 0-10.741-1.054-15-3.136l-.33.674-.329.674c4.501 2.2 9.728 3.288 15.659 3.288v-.75Zm-15.33-3.212.336-.671c-4.19-2.095-7.707-4.9-10.557-8.415l-.583.472-.582.472c2.989 3.687 6.676 6.625 11.051 8.813l.335-.671Zm-10.804-8.614.591-.463c-2.761-3.522-4.862-7.623-6.297-12.313l-.718.22-.717.22c1.485 4.85 3.667 9.118 6.551 12.799l.59-.463Zm-6.424-12.556.718-.22c-1.437-4.693-2.158-9.68-2.158-14.964h-1.5c0 5.422.74 10.558 2.223 15.403l.717-.219Zm-2.19-15.184h.75c0-5.29.673-10.28 2.016-14.978l-.722-.206-.721-.206c-1.383 4.841-2.073 9.973-2.073 15.39h.75Zm2.044-15.184.718.22c1.435-4.688 3.534-8.738 6.29-12.16l-.584-.47-.584-.47c-2.888 3.586-5.072 7.81-6.557 12.66l.717.22Zm6.424-12.41.583.472c2.848-3.512 6.36-6.266 10.544-8.263l-.323-.677-.323-.677c-4.381 2.091-8.071 4.983-11.063 8.673l.582.472Zm10.804-8.468.33.674c4.261-2.083 9.206-3.136 14.854-3.136v-1.5c-5.836 0-11.014 1.089-15.513 3.288l.329.674Zm15.184-3.212v.75c1.898 0 3.947.19 6.15.573l.128-.739.129-.739c-2.274-.395-4.41-.595-6.407-.595v.75Zm6.278.584-.128.739c2.176.378 4.357 1.041 6.545 1.993l.299-.688.299-.688c-2.289-.995-4.585-1.695-6.886-2.095l-.129.739Zm6.716 2.044-.273.698a23.28 23.28 0 0 1 6.083 3.538l.468-.586.469-.586a24.795 24.795 0 0 0-6.473-3.762l-.274.698Zm6.278 3.65-.436.61c1.958 1.399 3.593 3.172 4.906 5.328l.64-.39.641-.39c-1.413-2.321-3.185-4.247-5.315-5.768l-.436.61Zm5.11 5.548v.75h.292v-1.5h-.292v.75Zm.292 0h.75V10.756h-1.5v38.836h.75Zm0-38.836v.75h12.41v-1.5h-12.41v.75Zm12.41 0h-.75V115h1.5V10.756h-.75Zm64.207 59.276v.75h.802l-.053-.8-.749.05Zm-2.044-8.322-.694.283.004.01.005.012.685-.305Zm-4.526-6.716-.543.517.013.014.014.013.516-.544Zm-6.716-4.526-.314.681.016.007.015.007.283-.695Zm-17.228 0 .293.69.012-.005-.305-.685Zm-6.57 4.526.544.517-.544-.517Zm-4.38 6.862.691.292.004-.009-.695-.283Zm-1.898 8.176-.748-.05-.053.8h.801v-.75Zm55.334 21.024.736.144.175-.894h-.911v.75Zm-10.95 19.126-.453-.598.453.598Zm-37.084 3.504-.304.685.005.003.299-.688Zm-11.096-8.176-.568.489.568-.489Zm-6.862-12.556-.718.216.004.013.714-.229Zm-2.482-15.914h-.75v.013l.001.012.749-.025Zm2.628-15.768-.704-.259.704.259Zm7.3-12.41-.553-.507-.007.009.56.498Zm11.242-8.176-.304-.685-.006.002.31.683ZM637.998 42l-.406.63.008.006.008.005.39-.641Zm10.658 10.512-.639.392.007.01.632-.402Zm5.548 14.016-.736.142.003.013.733-.155Zm1.314 14.454v.75h.719l.031-.718-.75-.032Zm-56.502 0v-.75h-.728l-.021.728.749.022Zm1.168 9.49-.72.21.002.005.718-.215Zm4.234 7.884-.576.48.005.006.005.006.566-.492Zm7.446 5.402.309-.684-.309.684Zm23.506-1.606-.436-.61-.008.006.444.604Zm6.716-11.096v-.75h-.605l-.128.592.733.158Zm.292-21.024.749-.05a25.082 25.082 0 0 0-2.107-8.577l-.686.305-.685.305a23.55 23.55 0 0 1 1.981 8.067l.748-.05Zm-2.044-8.322.695-.283c-1.109-2.72-2.676-5.05-4.704-6.977l-.517.544-.516.544c1.865 1.772 3.315 3.92 4.348 6.455l.694-.283Zm-4.526-6.716.544-.517c-1.927-2.028-4.256-3.595-6.977-4.704l-.283.695-.283.695c2.535 1.032 4.684 2.482 6.456 4.348l.543-.517Zm-6.716-4.526.315-.681c-2.641-1.218-5.572-1.821-8.783-1.821v1.5c3.019 0 5.733.566 8.154 1.683l.314-.681Zm-8.468-1.752v-.75c-3.304 0-6.33.601-9.064 1.817l.304.685.305.685c2.521-1.12 5.336-1.687 8.455-1.687v-.75Zm-8.76 1.752-.292-.69c-2.623 1.11-4.899 2.676-6.821 4.7l.543.516.544.517c1.777-1.87 3.881-3.32 6.319-4.352l-.293-.691Zm-6.57 4.526-.543-.517c-1.918 2.019-3.427 4.386-4.531 7.096l.694.283.695.283c1.037-2.546 2.448-4.753 4.229-6.628l-.544-.517Zm-4.38 6.862-.69-.292c-1.106 2.612-1.756 5.42-1.956 8.418l.748.05.749.05c.189-2.842.804-5.485 1.84-7.934l-.691-.292Zm-1.898 8.176v.75h43.362v-1.5h-43.362v.75Zm55.334 21.024-.736-.144c-1.627 8.329-5.199 14.524-10.667 18.672l.453.598.454.598c5.822-4.418 9.55-10.973 11.232-19.58l-.736-.144Zm-10.95 19.126-.453-.598c-5.489 4.165-12.426 6.272-20.863 6.272v1.5c8.694 0 15.968-2.176 21.77-6.576l-.454-.598Zm-21.316 6.424v-.75c-5.955 0-11.105-.961-15.469-2.858l-.299.688-.299.688c4.591 1.996 9.953 2.982 16.067 2.982v-.75Zm-15.768-2.92.305-.685c-4.283-1.904-7.89-4.564-10.832-7.98l-.569.489-.568.489c3.092 3.592 6.882 6.382 11.36 8.372l.304-.685Zm-11.096-8.176.569-.489c-2.945-3.42-5.186-7.515-6.716-12.296l-.715.229-.714.229c1.585 4.952 3.918 9.228 7.008 12.816l.568-.489Zm-6.862-12.556.719-.215c-1.44-4.798-2.258-10.038-2.451-15.724l-.75.025-.749.025c.196 5.8 1.032 11.169 2.513 16.105l.718-.216Zm-2.482-15.914h.75c0-5.666.864-10.833 2.582-15.51l-.704-.258-.704-.259c-1.786 4.863-2.674 10.208-2.674 16.027h.75Zm2.628-15.768.704.259c1.723-4.689 4.11-8.743 7.157-12.17l-.561-.499-.56-.498c-3.182 3.58-5.662 7.8-7.444 12.65l.704.258Zm7.3-12.41.553.507c3.145-3.43 6.81-6.096 11-8l-.311-.683-.31-.683c-4.376 1.99-8.205 4.775-11.485 8.352l.553.507Zm11.242-8.176.305.685c4.277-1.9 8.941-2.855 14.003-2.855v-1.5c-5.255 0-10.129.992-14.612 2.985l.304.685Zm14.308-2.92v.75c6.613 0 12.01 1.39 16.238 4.114l.406-.63.407-.63c-4.532-2.92-10.232-4.354-17.051-4.354v.75ZM637.998 42l-.39.64c4.381 2.667 7.846 6.087 10.409 10.264l.639-.392.64-.392c-2.693-4.389-6.333-7.976-10.908-10.76l-.39.64Zm10.658 10.512-.632.403c2.673 4.201 4.488 8.785 5.444 13.755l.736-.142.737-.142c-.991-5.152-2.875-9.913-5.652-14.277l-.633.403Zm5.548 14.016-.733.155c1.059 5.008 1.49 9.763 1.298 14.267l.749.032.75.032c.197-4.645-.248-9.526-1.33-14.641l-.734.155Zm1.314 14.454v-.75h-56.502v1.5h56.502v-.75Zm-56.502 0-.749-.022c-.1 3.383.298 6.625 1.197 9.721l.72-.209.721-.21c-.854-2.937-1.234-6.022-1.139-9.258l-.75-.022Zm1.168 9.49-.718.216a22.877 22.877 0 0 0 4.376 8.148l.576-.48.576-.48a21.378 21.378 0 0 1-4.091-7.62l-.719.216Zm4.234 7.884-.566.492c2.026 2.329 4.599 4.192 7.704 5.594l.308-.684.309-.684c-2.93-1.323-5.321-3.062-7.189-5.21l-.566.492Zm7.446 5.402-.308.684c3.134 1.415 6.796 2.11 10.966 2.11v-1.5c-4.006 0-7.449-.668-10.349-1.978l-.309.684Zm10.658 2.044v.75c5.371 0 9.822-1.244 13.293-3.796l-.445-.604-.444-.604c-3.149 2.315-7.263 3.504-12.404 3.504v.75Zm12.848-3.65.436.61c3.59-2.564 5.912-6.442 7.013-11.548l-.733-.158-.733-.158c-1.04 4.822-3.195 8.34-6.419 10.644l.436.61Zm6.716-11.096v.75h12.264v-1.5h-12.264v.75Zm19.726-80.3v-.75h-.75v.75h.75Zm12.41 0h.75v-.75h-.75v.75Zm0 104.244v.75h.75V115h-.75Zm-12.41 0h-.75v.75h.75V115Zm0-104.244v.75h12.41v-1.5h-12.41v.75Zm12.41 0h-.75V115h1.5V10.756h-.75Zm0 104.244v-.75h-12.41v1.5h12.41V115Zm-12.41 0h.75V10.756h-1.5V115h.75Zm37.476-89.06v.75h.75v-.75h-.75Zm-12.41 0h-.75v.75h.75v-.75Zm0-15.184v-.75h-.75v.75h.75Zm12.41 0h.75v-.75h-.75v.75Zm-12.41 28.762v-.75h-.75v.75h.75Zm12.41 0h.75v-.75h-.75v.75Zm0 75.482v.75h.75V115h-.75Zm-12.41 0h-.75v.75h.75V115Zm12.41-89.06v-.75h-12.41v1.5h12.41v-.75Zm-12.41 0h.75V10.756h-1.5V25.94h.75Zm0-15.184v.75h12.41v-1.5h-12.41v.75Zm12.41 0h-.75V25.94h1.5V10.756h-.75Zm-12.41 28.762v.75h12.41v-1.5h-12.41v.75Zm12.41 0h-.75V115h1.5V39.518h-.75Zm0 75.482v-.75h-12.41v1.5h12.41V115Zm-12.41 0h.75V39.518h-1.5V115h.75Zm24.335-75.482v-.75h-.75v.75h.75Zm11.68 0h.75v-.75h-.75v.75Zm0 11.972h-.75v.75h.75v-.75Zm.292 0v.75h.438l.215-.382-.653-.368Zm44.968-5.986-.575.482.575-.482Zm4.234 8.76-.731.167.002.013.004.012.725-.192ZM773.701 115v.75h.75V115h-.75Zm-12.41 0h-.75v.75h.75V115Zm-4.088-62.196-.531.53.531-.53Zm-21.17-2.336-.287-.693-.009.004.296.689Zm-6.862 4.964-.568-.49.568.49Zm-4.234 7.592-.712-.237-.002.007-.003.008.717.222ZM723.623 115v.75h.75V115h-.75Zm-12.41 0h-.75v.75h.75V115Zm0-75.482v.75h11.68v-1.5h-11.68v.75Zm11.68 0h-.75V51.49h1.5V39.518h-.75Zm0 11.972v.75h.292v-1.5h-.292v.75Zm.292 0 .653.368c5.015-8.895 12.93-13.342 23.875-13.342v-1.5c-11.442 0-19.88 4.702-25.182 14.106l.654.368Zm24.528-13.724v.75c4.901 0 8.933.674 12.124 1.988l.286-.694.285-.694c-3.427-1.41-7.669-2.1-12.695-2.1v.75Zm12.41 2.044-.286.694c3.212 1.322 5.785 3.153 7.741 5.482l.575-.482.574-.482c-2.131-2.538-4.912-4.503-8.319-5.905l-.285.693Zm8.03 5.694-.575.482c1.96 2.334 3.323 5.143 4.078 8.445l.731-.167.731-.167c-.803-3.511-2.263-6.542-4.391-9.075l-.574.482Zm4.234 8.76-.725.192c.856 3.236 1.289 6.869 1.289 10.904h1.5c0-4.14-.444-7.905-1.339-11.288l-.725.192Zm1.314 11.096h-.75V115h1.5V65.36h-.75Zm0 49.64v-.75h-12.41v1.5h12.41V115Zm-12.41 0h.75V63.9h-1.5V115h.75Zm0-51.1h.75c0-4.826-1.413-8.731-4.308-11.626l-.53.53-.531.53c2.556 2.556 3.869 6.048 3.869 10.566h.75Zm-4.088-11.096.53-.53c-2.898-2.898-6.854-4.308-11.772-4.308v1.5c4.62 0 8.159 1.316 10.711 3.868l.531-.53Zm-11.242-4.088v-.75c-3.872 0-7.282.595-10.215 1.809l.287.693.287.693c2.712-1.122 5.92-1.695 9.641-1.695v-.75Zm-9.928 1.752-.296-.69c-2.825 1.211-5.207 2.932-7.134 5.164l.568.49.567.49c1.772-2.05 3.964-3.64 6.59-4.765l-.295-.689Zm-6.862 4.964-.568-.49c-1.919 2.221-3.376 4.84-4.378 7.845l.712.237.711.237c.945-2.835 2.31-5.278 4.09-7.339l-.567-.49Zm-4.234 7.592-.717-.222c-.901 2.904-1.347 6.095-1.347 9.566h1.5c0-3.343.429-6.381 1.28-9.122l-.716-.222Zm-1.314 9.344h-.75V115h1.5V72.368h-.75Zm0 42.632v-.75h-12.41v1.5h12.41V115Zm-12.41 0h.75V39.518h-1.5V115h.75Zm126.241-44.968v.75h.801l-.053-.8-.748.05Zm-2.044-8.322-.695.283.005.01.004.012.686-.305Zm-4.526-6.716-.544.517.013.014.014.013.517-.544Zm-6.716-4.526-.315.681.016.007.016.007.283-.695Zm-17.228 0 .292.69.012-.005-.304-.685Zm-6.57 4.526.543.517-.543-.517Zm-4.38 6.862.691.292.003-.009-.694-.283Zm-1.898 8.176-.749-.05-.053.8h.802v-.75Zm55.334 21.024.736.144.174-.894h-.91v.75Zm-10.95 19.126-.454-.598.454.598Zm-37.084 3.504-.305.685.006.003.299-.688Zm-11.096-8.176-.569.489.569-.489Zm-6.862-12.556-.719.216.004.013.715-.229Zm-2.482-15.914h-.75v.025l.75-.025Zm2.628-15.768-.704-.259.704.259Zm7.3-12.41-.553-.507-.008.009.561.498Zm11.242-8.176-.305-.685-.006.002.311.683ZM833.074 42l-.407.63.009.006.008.005.39-.641Zm10.658 10.512-.64.392.007.01.633-.402Zm5.548 14.016-.737.142.003.013.734-.155Zm1.314 14.454v.75h.718l.031-.718-.749-.032Zm-56.502 0v-.75h-.729l-.021.728.75.022Zm1.168 9.49-.721.21.002.005.719-.215Zm4.234 7.884-.576.48.005.006.005.006.566-.492Zm7.446 5.402.308-.684-.308.684Zm23.506-1.606-.436-.61-.009.006.445.604Zm6.716-11.096v-.75h-.606l-.127.592.733.158Zm.292-21.024.748-.05a25.059 25.059 0 0 0-2.107-8.577l-.685.305-.686.305a23.55 23.55 0 0 1 1.981 8.067l.749-.05Zm-2.044-8.322.694-.283c-1.108-2.72-2.676-5.05-4.704-6.977l-.516.544-.517.544c1.865 1.772 3.315 3.92 4.348 6.455l.695-.283Zm-4.526-6.716.543-.517c-1.926-2.028-4.255-3.595-6.976-4.704l-.283.695-.283.695c2.535 1.032 4.683 2.482 6.455 4.348l.544-.517Zm-6.716-4.526.314-.681c-2.64-1.218-5.572-1.821-8.782-1.821v1.5c3.019 0 5.732.566 8.153 1.683l.315-.681Zm-8.468-1.752v-.75c-3.305 0-6.33.601-9.065 1.817l.305.685.304.685c2.522-1.12 5.336-1.687 8.456-1.687v-.75Zm-8.76 1.752-.293-.69c-2.623 1.11-4.899 2.676-6.821 4.7l.544.516.543.517c1.777-1.87 3.881-3.32 6.319-4.352l-.292-.691Zm-6.57 4.526-.544-.517c-1.917 2.019-3.427 4.386-4.531 7.096l.695.283.694.283c1.038-2.546 2.448-4.753 4.229-6.628l-.543-.517Zm-4.38 6.862-.691-.292c-1.105 2.612-1.756 5.42-1.956 8.418l.749.05.748.05c.19-2.842.804-5.485 1.84-7.934l-.69-.292Zm-1.898 8.176v.75h43.362v-1.5h-43.362v.75Zm55.334 21.024-.736-.144c-1.628 8.329-5.199 14.524-10.668 18.672l.454.598.453.598c5.822-4.418 9.551-10.973 11.233-19.58l-.736-.144Zm-10.95 19.126-.454-.598c-5.489 4.165-12.426 6.272-20.862 6.272v1.5c8.694 0 15.968-2.176 21.769-6.576l-.453-.598Zm-21.316 6.424v-.75c-5.956 0-11.106-.961-15.469-2.858l-.299.688-.299.688c4.591 1.996 9.953 2.982 16.067 2.982v-.75Zm-15.768-2.92.304-.685c-4.282-1.904-7.89-4.564-10.832-7.98l-.568.489-.569.489c3.093 3.592 6.883 6.382 11.36 8.372l.305-.685Zm-11.096-8.176.568-.489c-2.945-3.42-5.186-7.515-6.716-12.296l-.714.229-.715.229c1.585 4.952 3.919 9.228 7.008 12.816l.569-.489Zm-6.862-12.556.718-.215c-1.439-4.798-2.258-10.038-2.451-15.724l-.749.025-.75.025c.197 5.8 1.033 11.169 2.513 16.105l.719-.216Zm-2.482-15.914h.75c0-5.666.864-10.833 2.582-15.51l-.704-.258-.704-.259c-1.786 4.863-2.674 10.208-2.674 16.027h.75Zm2.628-15.768.704.259c1.722-4.689 4.109-8.743 7.156-12.17l-.56-.499-.561-.498c-3.182 3.58-5.662 7.8-7.443 12.65l.704.258Zm7.3-12.41.553.507c3.144-3.43 6.809-6.096 10.999-8l-.31-.683-.311-.683c-4.375 1.99-8.205 4.775-11.484 8.352l.553.507Zm11.242-8.176.304.685c4.277-1.9 8.942-2.855 14.004-2.855v-1.5c-5.256 0-10.13.992-14.613 2.985l.305.685Zm14.308-2.92v.75c6.613 0 12.009 1.39 16.237 4.114l.407-.63.406-.63c-4.532-2.92-10.231-4.354-17.05-4.354v.75ZM833.074 42l-.39.64c4.38 2.667 7.845 6.087 10.408 10.264l.64-.392.639-.392c-2.693-4.389-6.333-7.976-10.907-10.76l-.39.64Zm10.658 10.512-.633.403c2.674 4.201 4.488 8.785 5.444 13.755l.737-.142.736-.142c-.991-5.152-2.875-9.913-5.652-14.277l-.632.403Zm5.548 14.016-.734.155c1.059 5.008 1.49 9.763 1.298 14.267l.75.032.749.032c.198-4.645-.247-9.526-1.33-14.641l-.733.155Zm1.314 14.454v-.75h-56.502v1.5h56.502v-.75Zm-56.502 0-.75-.022c-.099 3.383.299 6.625 1.197 9.721l.721-.209.72-.21c-.853-2.937-1.234-6.022-1.139-9.258l-.749-.022Zm1.168 9.49-.719.216a22.863 22.863 0 0 0 4.377 8.148l.576-.48.576-.48a21.365 21.365 0 0 1-4.092-7.62l-.718.216Zm4.234 7.884-.566.492c2.025 2.329 4.599 4.192 7.703 5.594l.309-.684.308-.684c-2.93-1.323-5.32-3.062-7.188-5.21l-.566.492Zm7.446 5.402-.309.684c3.134 1.415 6.797 2.11 10.967 2.11v-1.5c-4.006 0-7.449-.668-10.35-1.978l-.308.684Zm10.658 2.044v.75c5.371 0 9.822-1.244 13.292-3.796l-.444-.604-.445-.604c-3.148 2.315-7.262 3.504-12.403 3.504v.75Zm12.848-3.65.436.61c3.589-2.564 5.912-6.442 7.013-11.548l-.733-.158-.733-.158c-1.041 4.822-3.195 8.34-6.419 10.644l.436.61Zm6.716-11.096v.75h12.264v-1.5h-12.264v.75Zm30.968.146.749-.027-.026-.723h-.723v.75Zm1.898 7.008-.643.386.004.007.005.008.634-.401Zm4.526 4.526-.401.634.019.012.02.011.362-.657Zm6.424 2.336-.153.734.006.001.147-.735Zm13.578.292.101.743-.101-.743Zm5.84-1.606-.291-.691-.007.003-.007.003.305.685Zm4.526-3.358.585.469.008-.01.007-.009-.6-.45Zm-11.096-17.082-.214.719.011.003.012.003.191-.725ZM882 80.544l-.151.735.008.001.008.002.135-.738Zm-11.972-3.504-.298.688.011.005.011.005.276-.698Zm-9.052-6.424-.56.5.56-.5Zm-1.168-21.17-.631-.406-.005.008-.005.009.641.389Zm6.57-6.57.399.635.006-.004-.405-.631Zm9.052-3.796.171.73.008-.002.007-.002-.186-.726Zm21.9-.146-.159.733.01.002.009.002.14-.737Zm9.49 3.796-.421.62.012.01.013.007.396-.637Zm6.716 7.3-.663.352.005.009.658-.361Zm2.92 11.388v.75h.799l-.051-.798-.748.048Zm-12.41 0-.748.06.055.69h.693v-.75Zm-1.898-5.986-.63.407.006.01.006.008.618-.425Zm-4.088-3.942.38-.647-.38.647Zm-5.548-2.044-.182.728.02.005.021.004.141-.737Zm-11.68-.292-.112-.742-.005.001.117.741Zm-5.11 1.606.3.687.018-.008.017-.008-.335-.671Zm-3.796 2.92.576.48.009-.011.009-.012-.594-.457Zm.73 10.074-.531.53.018.018.019.016.494-.564Zm5.84 3.504-.289.692.013.005.012.005.264-.702Zm7.884 2.336-.171.73.012.003.012.002.147-.735Zm8.76 1.898-.171.73.01.003.161-.733Zm9.052 2.482-.238.712.007.002.231-.714Zm7.884 3.942-.446.603.015.01.015.011.416-.624Zm5.548 5.986-.655.366.006.01.006.01.643-.386Zm-.73 20.44-.631-.407-.004.008-.005.007.64.392Zm-7.446 7.3-.383-.645-.009.006.392.639Zm-10.366 3.796-.13-.739-.01.002-.011.002.151.735Zm-23.36-.146.168-.731-.168.731Zm-10.074-4.234-.43.614.007.005.007.005.416-.624Zm-7.008-7.884-.663.351.004.008.659-.359Zm-2.92-11.972v-.75h-.782l.032.781.75-.031Zm12.41 0-.75.027c.101 2.826.759 5.291 2.005 7.367l.643-.386.643-.386c-1.091-1.818-1.698-4.025-1.792-6.649l-.749.027Zm1.898 7.008-.634.4a15.097 15.097 0 0 0 4.759 4.76l.401-.634.4-.634a13.604 13.604 0 0 1-4.292-4.293l-.634.401Zm4.526 4.526-.362.657c2.017 1.109 4.229 1.912 6.633 2.413l.153-.734.153-.734c-2.269-.473-4.339-1.227-6.216-2.259l-.361.657Zm6.424 2.336-.147.735c2.482.497 5.014.745 7.593.745v-1.5a37.18 37.18 0 0 1-7.299-.715l-.147.735Zm7.446.73v.75c1.984 0 4.062-.149 6.233-.445l-.101-.743-.102-.743a44.663 44.663 0 0 1-6.03.431v.75Zm6.132-.438.101.743c2.203-.3 4.219-.853 6.043-1.664l-.304-.685-.305-.685c-1.68.746-3.557 1.264-5.637 1.548l.102.743Zm5.84-1.606.291.691c1.956-.823 3.569-2.016 4.82-3.58l-.585-.469-.586-.469c-1.084 1.356-2.489 2.402-4.231 3.136l.291.691Zm4.526-3.358.6.45c1.283-1.712 1.902-3.825 1.902-6.29h-1.5c0 2.207-.55 3.987-1.602 5.39l.6.45Zm1.752-5.84h.75c0-3.434-1.319-6.112-3.979-7.92l-.421.62-.422.62c2.207 1.5 3.322 3.69 3.322 6.68h.75Zm-3.65-7.3.421-.62c-2.521-1.715-5.671-3.058-9.428-4.047l-.191.725-.191.725c3.639.958 6.622 2.242 8.967 3.837l.422-.62Zm-9.198-3.942.213-.719c-3.631-1.08-7.6-2.01-11.905-2.793l-.134.738-.135.738c4.26.774 8.175 1.693 11.747 2.755l.214-.719ZM882 80.544l.15-.735c-4.244-.868-8.193-2.024-11.847-3.467l-.275.698-.276.698c3.743 1.477 7.776 2.657 12.097 3.54l.151-.734Zm-11.972-3.504.297-.688c-3.509-1.518-6.434-3.597-8.79-6.236l-.559.5-.56.5c2.511 2.812 5.62 5.015 9.314 6.612l.298-.688Zm-9.052-6.424.559-.5c-2.275-2.547-3.459-6.143-3.459-10.888h-1.5c0 4.989 1.248 8.985 3.84 11.887l.56-.499Zm-3.65-11.388h.75c0-3.685.802-6.805 2.373-9.393l-.641-.389-.641-.39c-1.739 2.864-2.591 6.265-2.591 10.172h.75Zm2.482-9.782.631.406c1.695-2.637 3.807-4.748 6.338-6.341l-.399-.635-.4-.635c-2.725 1.716-4.992 3.986-6.801 6.8l.631.405Zm6.57-6.57.405.63c2.65-1.703 5.588-2.936 8.818-3.696l-.171-.73-.172-.73c-3.388.797-6.485 2.095-9.286 3.895l.406.631Zm9.052-3.796.186.726c3.35-.86 6.645-1.29 9.888-1.29v-1.5c-3.376 0-6.797.447-10.261 1.338l.187.726Zm10.074-1.314v.75c4.237 0 8.126.385 11.667 1.151l.159-.733.158-.733c-3.661-.792-7.657-1.185-11.984-1.185v.75Zm11.826 1.168-.14.737c3.512.664 6.577 1.894 9.209 3.68l.421-.621.421-.62c-2.82-1.914-6.081-3.215-9.772-3.913l-.139.737Zm9.49 3.796-.396.637c2.703 1.678 4.853 4.01 6.449 7.015l.663-.352.662-.352c-1.713-3.224-4.041-5.759-6.983-7.585l-.395.637Zm6.716 7.3-.658.36c1.587 2.895 2.542 6.576 2.829 11.076l.749-.048.748-.048c-.297-4.65-1.289-8.56-3.011-11.7l-.657.36Zm2.92 11.388v-.75h-12.41v1.5h12.41v-.75Zm-12.41 0 .747-.06c-.202-2.527-.864-4.658-2.027-6.35l-.618.424-.618.425c.977 1.422 1.581 3.281 1.768 5.62l.748-.059Zm-1.898-5.986.629-.407c-1.132-1.75-2.579-3.147-4.337-4.181l-.38.646-.381.646c1.552.913 2.83 2.144 3.839 3.703l.63-.407Zm-4.088-3.942.38-.647c-1.735-1.02-3.667-1.73-5.788-2.134l-.14.737-.141.737c1.967.374 3.734 1.027 5.308 1.953l.381-.646Zm-5.548-2.044.182-.728a25.344 25.344 0 0 0-6.168-.752v1.5c1.984 0 3.918.236 5.804.708l.182-.728Zm-5.986-.73v-.75c-1.889 0-3.824.15-5.806.446l.112.742.111.742a37.62 37.62 0 0 1 5.583-.43v-.75Zm-5.694.438-.117-.74c-1.92.302-3.698.86-5.329 1.675l.336.671.335.67c1.484-.741 3.113-1.254 4.892-1.535l-.117-.741Zm-5.11 1.606-.301-.687c-1.665.728-3.034 1.778-4.09 3.15l.595.457.594.457c.891-1.158 2.053-2.056 3.502-2.69l-.3-.687Zm-3.796 2.92-.577-.48c-1.114 1.337-1.633 3.08-1.633 5.152h1.5c0-1.821.453-3.193 1.286-4.192l-.576-.48Zm-1.46 4.672h-.75c0 2.332.803 4.326 2.409 5.932l.531-.53.53-.53c-1.314-1.314-1.97-2.921-1.97-4.872h-.75Zm2.19 5.402-.494.564c1.63 1.427 3.65 2.635 6.045 3.632l.289-.692.288-.692c-2.277-.95-4.15-2.078-5.634-3.376l-.494.564Zm5.84 3.504-.264.702c2.372.89 5.032 1.677 7.977 2.364l.171-.73.17-.73c-2.894-.676-5.491-1.446-7.791-2.308l-.263.702Zm7.884 2.336-.147.735a283.89 283.89 0 0 1 8.736 1.893l.171-.73.17-.73a282.245 282.245 0 0 0-8.783-1.903l-.147.735Zm8.76 1.898-.161.733a87.374 87.374 0 0 1 8.975 2.46l.238-.711.237-.712a88.926 88.926 0 0 0-9.129-2.503l-.16.733Zm9.052 2.482-.231.714c2.951.952 5.504 2.231 7.669 3.831l.446-.603.445-.603c-2.312-1.71-5.015-3.058-8.099-4.053l-.23.714Zm7.884 3.942-.416.624a16.45 16.45 0 0 1 5.309 5.728l.655-.366.654-.367a17.952 17.952 0 0 0-5.786-6.243l-.416.624Zm5.548 5.986-.643.386c1.373 2.29 2.083 5.165 2.083 8.666h1.5c0-3.701-.751-6.86-2.297-9.438l-.643.386Zm2.19 9.052h-.75c0 4.47-.951 8.114-2.801 10.981l.631.407.63.407c2.044-3.168 3.04-7.115 3.04-11.795h-.75Zm-2.92 11.388-.64-.392c-1.784 2.911-4.177 5.258-7.189 7.047l.383.645.383.645c3.216-1.91 5.788-4.429 7.702-7.553l-.639-.392Zm-7.446 7.3-.392-.639c-2.928 1.794-6.292 3.029-10.104 3.696l.13.739.129.739c3.975-.696 7.522-1.991 10.629-3.896l-.392-.639Zm-10.366 3.796-.151-.735a55.764 55.764 0 0 1-11.237 1.153v1.5c3.847 0 7.694-.395 11.538-1.183l-.15-.735Zm-11.388 1.168v-.75c-4.133 0-8.067-.432-11.804-1.295l-.168.731-.169.731c3.855.889 7.903 1.333 12.141 1.333v-.75Zm-11.972-1.314.168-.731c-3.717-.858-6.989-2.236-9.826-4.127l-.416.624-.416.624c3.003 2.002 6.446 3.447 10.321 4.341l.169-.731Zm-10.074-4.234.43-.614c-2.823-1.976-5.082-4.516-6.78-7.629l-.658.359-.659.359c1.806 3.311 4.219 6.027 7.237 8.139l.43-.614Zm-7.008-7.884.662-.351c-1.688-3.189-2.642-7.065-2.833-11.652l-.749.031-.75.031c.199 4.757 1.191 8.862 3.007 12.292l.663-.351Zm-2.92-11.972v.75h12.41v-1.5h-12.41v.75ZM320.462 200.5l-.725.192.001.003.724-.195Zm6.424 13.724-.61.436.61-.436Zm11.242 9.928-.363.656.011.006.352-.662Zm32.704 0 .352.662.011-.006-.363-.656Zm11.242-9.928-.61-.436.61.436Zm6.424-13.724.724.195.001-.003-.725-.192Zm0-31.098-.725.192.001.003.724-.195Zm-6.424-13.87-.61.436.61-.436Zm-11.242-9.782-.363.656.011.006.352-.662Zm-32.704 0 .352.662.011-.006-.363-.656Zm-17.666 23.652.724.195.001-.003-.725-.192Zm-12.848-4.964-.714-.231-.002.007.716.224Zm9.49-17.52-.578-.478.578.478Zm15.622-12.118-.327-.675.327.675Zm43.508 0 .327-.675-.327.675Zm15.622 12.118.578-.478-.578.478Zm9.344 17.52-.717.221.004.013.713-.234Zm0 41.026-.714-.231-.002.007.716.224Zm-24.966 29.492.318.679.009-.004-.327-.675Zm-43.508 0-.327.675.009.004.318-.679Zm-25.112-29.492-.717.221.004.013.713-.234Zm10.804-20.586h-.75c0 5.322.69 10.593 2.069 15.814l.725-.192.725-.192a60.191 60.191 0 0 1-2.019-15.43h-.75Zm2.044 15.622-.724.195c1.385 5.144 3.563 9.801 6.538 13.965l.61-.436.61-.436c-2.865-4.012-4.969-8.504-6.31-13.483l-.724.195Zm6.424 13.724-.61.436c2.987 4.183 6.821 7.566 11.489 10.148l.363-.656.363-.656c-4.481-2.479-8.142-5.715-10.995-9.708l-.61.436Zm11.242 9.928-.352.662c4.704 2.503 10.281 3.738 16.704 3.738v-1.5c-6.231 0-11.555-1.198-16-3.562l-.352.662Zm16.352 3.65v.75c6.423 0 12-1.235 16.704-3.738l-.352-.662-.352-.662c-4.445 2.364-9.769 3.562-16 3.562v.75Zm16.352-3.65.363.656c4.668-2.582 8.502-5.965 11.489-10.148l-.61-.436-.61-.436c-2.853 3.993-6.514 7.229-10.995 9.708l.363.656Zm11.242-9.928.61.436c2.975-4.164 5.153-8.821 6.538-13.965l-.724-.195-.724-.195c-1.341 4.979-3.445 9.471-6.31 13.483l.61.436Zm6.424-13.724.725.192a61.678 61.678 0 0 0 2.069-15.814h-1.5c0 5.19-.673 10.333-2.019 15.43l.725.192Zm2.044-15.622h.75c0-5.322-.69-10.546-2.07-15.671l-.724.195-.724.195a58.547 58.547 0 0 1 2.018 15.281h.75Zm-2.044-15.476.725-.192c-1.384-5.24-3.563-9.948-6.539-14.114l-.61.436-.61.436c2.864 4.01 4.968 8.549 6.309 13.626l.725-.192Zm-6.424-13.87.61-.436c-2.989-4.185-6.826-7.522-11.5-10.008l-.352.662-.352.662c4.475 2.381 8.133 5.565 10.984 9.556l.61-.436Zm-11.242-9.782.363-.656c-4.707-2.604-10.288-3.89-16.715-3.89v1.5c6.226 0 11.547 1.245 15.989 3.702l.363-.656Zm-16.352-3.796v-.75c-6.427 0-12.008 1.286-16.715 3.89l.363.656.363.656c4.442-2.457 9.763-3.702 15.989-3.702v-.75Zm-16.352 3.796-.352-.662c-4.674 2.486-8.511 5.823-11.5 10.008l.61.436.61.436c2.851-3.991 6.509-7.175 10.984-9.556l-.352-.662Zm-11.242 9.782-.61-.436c-2.976 4.166-5.155 8.874-6.539 14.114l.725.192.725.192c1.341-5.077 3.445-9.616 6.309-13.626l-.61-.436Zm-6.424 13.87-.724-.195a60.013 60.013 0 0 0-2.07 15.671h1.5c0-5.19.673-10.283 2.018-15.281l-.724-.195Zm-15.914 15.476h.75c0-7.032 1.011-13.77 3.032-20.216l-.716-.224-.716-.224c-2.067 6.596-3.1 13.486-3.1 20.664h.75Zm3.066-20.44.714.231c2.113-6.534 5.233-12.289 9.354-17.273l-.578-.478-.578-.478c-4.249 5.139-7.457 11.064-9.626 17.767l.714.231Zm9.49-17.52.578.478c4.113-4.974 9.233-8.948 15.371-11.921l-.327-.675-.327-.675c-6.321 3.062-11.615 7.166-15.873 12.315l.578.478Zm15.622-12.118.327.675c6.109-2.959 13.245-4.451 21.427-4.451v-1.5c-8.365 0-15.732 1.526-22.081 4.601l.327.675Zm21.754-4.526v.75c8.182 0 15.318 1.492 21.427 4.451l.327-.675.327-.675c-6.349-3.075-13.716-4.601-22.081-4.601v.75Zm21.754 4.526-.327.675c6.138 2.973 11.258 6.947 15.371 11.921l.578-.478.578-.478c-4.258-5.149-9.552-9.253-15.873-12.315l-.327.675Zm15.622 12.118-.578.478c4.119 4.982 7.189 10.733 9.205 17.263l.717-.221.717-.221c-2.072-6.708-5.232-12.636-9.483-17.777l-.578.478Zm9.344 17.52-.713.234c2.116 6.443 3.175 13.177 3.175 20.206h1.5c0-7.182-1.082-14.074-3.249-20.674l-.713.234Zm3.212 20.44h-.75c0 7.029-1.059 13.813-3.176 20.355l.714.231.714.231c2.166-6.695 3.248-13.635 3.248-20.817h-.75Zm-3.212 20.586-.716-.224c-2.016 6.432-5.085 12.137-9.206 17.12l.578.478.578.478c4.25-5.139 7.41-11.018 9.482-17.628l-.716-.224Zm-9.344 17.374-.578-.478c-4.113 4.974-9.233 8.948-15.371 11.921l.327.675.327.675c6.321-3.062 11.615-7.166 15.873-12.315l-.578-.478Zm-15.622 12.118-.318-.679c-6.112 2.865-13.251 4.309-21.436 4.309v1.5c8.361 0 15.725-1.476 22.072-4.451l-.318-.679Zm-21.754 4.38v-.75c-8.185 0-15.324-1.444-21.436-4.309l-.318.679-.318.679c6.347 2.975 13.711 4.451 22.072 4.451v-.75Zm-21.754-4.38.327-.675c-6.138-2.973-11.258-6.947-15.371-11.921l-.578.478-.578.478c4.258 5.149 9.552 9.253 15.873 12.315l.327-.675Zm-15.622-12.118.578-.478c-4.123-4.986-7.242-10.694-9.355-17.13l-.713.234-.713.234c2.17 6.606 5.377 12.481 9.625 17.618l.578-.478Zm-9.49-17.374.717-.221c-2.022-6.545-3.033-13.333-3.033-20.365h-1.5c0 7.178 1.033 14.115 3.099 20.807l.717-.221Zm104.356-43.946v-.75h-.75v.75h.75Zm11.68 0h.75v-.75h-.75v.75Zm0 11.972h-.75v.75h.75v-.75Zm.292 0v.75h.438l.215-.382-.653-.368Zm44.968-5.986-.574.482.574-.482Zm4.234 8.76-.731.167.002.013.004.012.725-.192ZM474.458 237v.75h.75V237h-.75Zm-12.41 0h-.75v.75h.75V237Zm-4.088-62.196-.531.53.531-.53Zm-21.17-2.336-.287-.693-.009.004.296.689Zm-6.862 4.964-.568-.49.568.49Zm-4.234 7.592-.712-.237-.002.007-.003.008.717.222ZM424.38 237v.75h.75V237h-.75Zm-12.41 0h-.75v.75h.75V237Zm0-75.482v.75h11.68v-1.5h-11.68v.75Zm11.68 0h-.75v11.972h1.5v-11.972h-.75Zm0 11.972v.75h.292v-1.5h-.292v.75Zm.292 0 .653.368c5.015-8.895 12.93-13.342 23.875-13.342v-1.5c-11.442 0-19.88 4.702-25.182 14.106l.654.368Zm24.528-13.724v.75c4.901 0 8.933.674 12.124 1.988l.286-.694.285-.694c-3.427-1.411-7.669-2.1-12.695-2.1v.75Zm12.41 2.044-.286.694c3.212 1.322 5.785 3.153 7.742 5.482l.574-.482.574-.482c-2.131-2.538-4.912-4.503-8.319-5.906l-.285.694Zm8.03 5.694-.574.482c1.96 2.334 3.322 5.143 4.077 8.445l.731-.167.731-.167c-.803-3.511-2.263-6.542-4.391-9.075l-.574.482Zm4.234 8.76-.725.192c.856 3.236 1.289 6.869 1.289 10.904h1.5c0-4.141-.444-7.905-1.339-11.288l-.725.192Zm1.314 11.096h-.75V237h1.5v-49.64h-.75Zm0 49.64v-.75h-12.41v1.5h12.41V237Zm-12.41 0h.75v-51.1h-1.5V237h.75Zm0-51.1h.75c0-4.826-1.413-8.731-4.308-11.626l-.53.53-.531.53c2.556 2.556 3.869 6.048 3.869 10.566h.75Zm-4.088-11.096.53-.53c-2.898-2.898-6.854-4.308-11.772-4.308v1.5c4.62 0 8.159 1.315 10.711 3.868l.531-.53Zm-11.242-4.088v-.75c-3.872 0-7.282.595-10.215 1.809l.287.693.287.693c2.712-1.122 5.92-1.695 9.641-1.695v-.75Zm-9.928 1.752-.296-.689c-2.825 1.21-5.206 2.931-7.134 5.163l.568.49.567.49c1.772-2.051 3.964-3.639 6.59-4.765l-.295-.689Zm-6.862 4.964-.568-.49c-1.919 2.222-3.376 4.84-4.378 7.845l.712.237.711.237c.945-2.835 2.311-5.278 4.09-7.339l-.567-.49Zm-4.234 7.592-.717-.222c-.901 2.904-1.347 6.095-1.347 9.566h1.5c0-3.343.43-6.381 1.28-9.122l-.716-.222Zm-1.314 9.344h-.75V237h1.5v-42.632h-.75Zm0 42.632v-.75h-12.41v1.5h12.41V237Zm-12.41 0h.75v-75.482h-1.5V237h.75Zm74.557-104.244v-.75h-.75v.75h.75Zm12.41 0h.75v-.75h-.75v.75Zm0 104.244v.75h.75V237h-.75Zm-12.41 0h-.75v.75h.75V237Zm0-104.244v.75h12.41v-1.5h-12.41v.75Zm12.41 0h-.75V237h1.5V132.756h-.75Zm0 104.244v-.75h-12.41v1.5h12.41V237Zm-12.41 0h.75V132.756h-1.5V237h.75Zm37.475-89.06v.75h.75v-.75h-.75Zm-12.41 0h-.75v.75h.75v-.75Zm0-15.184v-.75h-.75v.75h.75Zm12.41 0h.75v-.75h-.75v.75Zm-12.41 28.762v-.75h-.75v.75h.75Zm12.41 0h.75v-.75h-.75v.75Zm0 75.482v.75h.75V237h-.75Zm-12.41 0h-.75v.75h.75V237Zm12.41-89.06v-.75h-12.41v1.5h12.41v-.75Zm-12.41 0h.75v-15.184h-1.5v15.184h.75Zm0-15.184v.75h12.41v-1.5h-12.41v.75Zm12.41 0h-.75v15.184h1.5v-15.184h-.75Zm-12.41 28.762v.75h12.41v-1.5h-12.41v.75Zm12.41 0h-.75V237h1.5v-75.482h-.75Zm0 75.482v-.75h-12.41v1.5h12.41V237Zm-12.41 0h.75v-75.482h-1.5V237h.75Zm24.335-75.482v-.75h-.75v.75h.75Zm11.68 0h.75v-.75h-.75v.75Zm0 11.972h-.75v.75h.75v-.75Zm.292 0v.75h.438l.216-.382-.654-.368Zm44.968-5.986-.574.482.574-.482Zm4.234 8.76-.731.167.003.013.003.012.725-.192ZM598.415 237v.75h.75V237h-.75Zm-12.41 0h-.75v.75h.75V237Zm-4.088-62.196-.53.53.53-.53Zm-21.17-2.336-.287-.693-.008.004.295.689Zm-6.862 4.964-.567-.49.567.49Zm-4.234 7.592-.711-.237-.003.007-.002.008.716.222ZM548.337 237v.75h.75V237h-.75Zm-12.41 0h-.75v.75h.75V237Zm0-75.482v.75h11.68v-1.5h-11.68v.75Zm11.68 0h-.75v11.972h1.5v-11.972h-.75Zm0 11.972v.75h.292v-1.5h-.292v.75Zm.292 0 .654.368c5.015-8.895 12.93-13.342 23.874-13.342v-1.5c-11.442 0-19.879 4.702-25.181 14.106l.653.368Zm24.528-13.724v.75c4.902 0 8.934.674 12.125 1.988l.285-.694.286-.694c-3.428-1.411-7.669-2.1-12.696-2.1v.75Zm12.41 2.044-.285.694c3.211 1.322 5.784 3.153 7.741 5.482l.574-.482.574-.482c-2.131-2.538-4.911-4.503-8.318-5.906l-.286.694Zm8.03 5.694-.574.482c1.96 2.334 3.322 5.143 4.077 8.445l.731-.167.731-.167c-.802-3.511-2.263-6.542-4.391-9.075l-.574.482Zm4.234 8.76-.725.192c.857 3.236 1.289 6.869 1.289 10.904h1.5c0-4.141-.443-7.905-1.339-11.288l-.725.192Zm1.314 11.096h-.75V237h1.5v-49.64h-.75Zm0 49.64v-.75h-12.41v1.5h12.41V237Zm-12.41 0h.75v-51.1h-1.5V237h.75Zm0-51.1h.75c0-4.826-1.413-8.731-4.307-11.626l-.531.53-.53.53c2.556 2.556 3.868 6.048 3.868 10.566h.75Zm-4.088-11.096.531-.53c-2.898-2.898-6.855-4.308-11.773-4.308v1.5c4.621 0 8.159 1.315 10.712 3.868l.53-.53Zm-11.242-4.088v-.75c-3.871 0-7.282.595-10.215 1.809l.287.693.287.693c2.713-1.122 5.92-1.695 9.641-1.695v-.75Zm-9.928 1.752-.295-.689c-2.825 1.21-5.207 2.931-7.134 5.163l.567.49.568.49c1.771-2.051 3.964-3.639 6.59-4.765l-.296-.689Zm-6.862 4.964-.567-.49c-1.919 2.222-3.377 4.84-4.378 7.845l.711.237.712.237c.945-2.835 2.31-5.278 4.09-7.339l-.568-.49Zm-4.234 7.592-.716-.222c-.902 2.904-1.348 6.095-1.348 9.566h1.5c0-3.343.43-6.381 1.281-9.122l-.717-.222Zm-1.314 9.344h-.75V237h1.5v-42.632h-.75Zm0 42.632v-.75h-12.41v1.5h12.41V237Zm-12.41 0h.75v-75.482h-1.5V237h.75Zm126.241-44.968v.75h.802l-.053-.8-.749.05Zm-2.044-8.322-.694.283.004.011.005.011.685-.305Zm-4.526-6.716-.544.517.014.014.014.013.516-.544Zm-6.716-4.526-.314.681.015.007.016.007.283-.695Zm-17.228 0 .292.691.013-.006-.305-.685Zm-6.57 4.526.544.517-.544-.517Zm-4.38 6.862.691.292.004-.009-.695-.283Zm-1.898 8.176-.748-.05-.054.8h.802v-.75Zm55.334 21.024.736.144.175-.894h-.911v.75Zm-10.95 19.126-.453-.598.453.598Zm-37.084 3.504-.304.685.005.003.299-.688Zm-11.096-8.176-.568.489.568-.489Zm-6.862-12.556-.718.216.004.013.714-.229Zm-2.482-15.914h-.75v.013l.001.012.749-.025Zm2.628-15.768-.704-.259.704.259Zm7.3-12.41-.553-.507-.007.009.56.498Zm11.242-8.176-.304-.685-.006.002.31.683ZM657.788 164l-.406.63.008.006.008.005.39-.641Zm10.658 10.512-.639.392.006.011.633-.403Zm5.548 14.016-.736.142.002.013.734-.155Zm1.314 14.454v.75h.719l.03-.718-.749-.032Zm-56.502 0v-.75h-.728l-.022.728.75.022Zm1.168 9.49-.72.209.002.007.718-.216Zm4.234 7.884-.576.48.005.006.005.006.566-.492Zm7.446 5.402.309-.684-.309.684Zm23.506-1.606-.436-.61-.008.006.444.604Zm6.716-11.096v-.75h-.605l-.128.592.733.158Zm.292-21.024.749-.05a25.085 25.085 0 0 0-2.107-8.577l-.686.305-.685.305a23.57 23.57 0 0 1 1.981 8.067l.748-.05Zm-2.044-8.322.695-.283c-1.109-2.721-2.676-5.05-4.704-6.977l-.517.544-.516.544c1.865 1.772 3.315 3.92 4.348 6.455l.694-.283Zm-4.526-6.716.544-.517c-1.927-2.028-4.256-3.595-6.977-4.704l-.283.695-.283.695c2.535 1.032 4.684 2.482 6.455 4.348l.544-.517Zm-6.716-4.526.314-.681c-2.64-1.219-5.571-1.821-8.782-1.821v1.5c3.019 0 5.733.566 8.154 1.683l.314-.681Zm-8.468-1.752v-.75c-3.304 0-6.33.601-9.064 1.817l.304.685.305.685c2.521-1.12 5.336-1.687 8.455-1.687v-.75Zm-8.76 1.752-.292-.691c-2.623 1.11-4.9 2.677-6.822 4.7l.544.517.544.517c1.777-1.871 3.88-3.321 6.318-4.352l-.292-.691Zm-6.57 4.526-.544-.517c-1.917 2.019-3.427 4.386-4.53 7.096l.694.283.695.283c1.037-2.546 2.448-4.753 4.229-6.628l-.544-.517Zm-4.38 6.862-.691-.292c-1.105 2.612-1.755 5.42-1.955 8.418l.748.05.749.05c.189-2.842.804-5.485 1.84-7.934l-.691-.292Zm-1.898 8.176v.75h43.362v-1.5h-43.362v.75Zm55.334 21.024-.736-.144c-1.627 8.329-5.199 14.524-10.667 18.672l.453.598.453.598c5.823-4.418 9.551-10.973 11.233-19.58l-.736-.144Zm-10.95 19.126-.453-.598c-5.49 4.165-12.426 6.272-20.863 6.272v1.5c8.694 0 15.968-2.176 21.769-6.576l-.453-.598Zm-21.316 6.424v-.75c-5.955 0-11.105-.961-15.469-2.858l-.299.688-.299.688c4.591 1.996 9.953 2.982 16.067 2.982v-.75Zm-15.768-2.92.305-.685c-4.283-1.904-7.89-4.563-10.833-7.98l-.568.489-.568.489c3.092 3.591 6.882 6.382 11.36 8.372l.304-.685Zm-11.096-8.176.568-.489c-2.945-3.42-5.186-7.515-6.716-12.296l-.714.229-.714.229c1.585 4.952 3.918 9.228 7.008 12.816l.568-.489Zm-6.862-12.556.719-.216c-1.44-4.797-2.259-10.037-2.451-15.723l-.75.025-.749.025c.196 5.799 1.032 11.169 2.513 16.105l.718-.216Zm-2.482-15.914h.75c0-5.666.864-10.833 2.582-15.509l-.704-.259-.704-.259c-1.786 4.863-2.674 10.207-2.674 16.027h.75Zm2.628-15.768.704.259c1.722-4.689 4.109-8.743 7.157-12.171l-.561-.498-.56-.498c-3.183 3.58-5.662 7.799-7.444 12.649l.704.259Zm7.3-12.41.553.507c3.145-3.431 6.81-6.096 11-8l-.311-.683-.31-.683c-4.376 1.989-8.205 4.775-11.485 8.352l.553.507Zm11.242-8.176.305.685c4.277-1.901 8.941-2.855 14.003-2.855v-1.5c-5.255 0-10.129.992-14.612 2.985l.304.685Zm14.308-2.92v.75c6.613 0 12.009 1.389 16.238 4.114l.406-.63.406-.63c-4.531-2.921-10.231-4.354-17.05-4.354v.75ZM657.788 164l-.39.641c4.38 2.666 7.846 6.086 10.409 10.263l.639-.392.639-.392c-2.693-4.389-6.332-7.976-10.907-10.761l-.39.641Zm10.658 10.512-.633.403c2.674 4.201 4.489 8.785 5.445 13.755l.736-.142.737-.142c-.991-5.152-2.875-9.913-5.652-14.277l-.633.403Zm5.548 14.016-.734.155c1.06 5.008 1.491 9.763 1.299 14.267l.749.032.749.032c.198-4.645-.247-9.526-1.329-14.641l-.734.155Zm1.314 14.454v-.75h-56.502v1.5h56.502v-.75Zm-56.502 0-.75-.022c-.099 3.383.299 6.625 1.198 9.721l.72-.209.72-.209c-.853-2.938-1.233-6.024-1.138-9.259l-.75-.022Zm1.168 9.49-.718.216a22.864 22.864 0 0 0 4.376 8.148l.576-.48.576-.48a21.374 21.374 0 0 1-4.091-7.62l-.719.216Zm4.234 7.884-.566.492c2.026 2.329 4.599 4.192 7.703 5.594l.309-.684.309-.684c-2.93-1.323-5.321-3.062-7.189-5.21l-.566.492Zm7.446 5.402-.309.684c3.135 1.415 6.797 2.11 10.967 2.11v-1.5c-4.006 0-7.449-.668-10.349-1.978l-.309.684Zm10.658 2.044v.75c5.371 0 9.822-1.244 13.292-3.796l-.444-.604-.444-.604c-3.149 2.315-7.263 3.504-12.404 3.504v.75Zm12.848-3.65.436.61c3.59-2.564 5.912-6.442 7.013-11.548l-.733-.158-.733-.158c-1.04 4.822-3.195 8.341-6.419 10.644l.436.61Zm6.716-11.096v.75h12.264v-1.5h-12.264v.75Z" mask="url(#a)"/><path fill="#1E1E1E" stroke="#1E1E1E" stroke-width=".75" d="M66.698 8.375c17.851 0 30.862 3.21 40.351 8.203 9.484 4.991 15.468 11.775 19.253 18.958l.327.622.335-.618c7.652-14.148 24.051-26.68 59.338-26.68h66.323v173.455H209.51l-.03.343c-3.625 42.484-39.29 75.967-82.98 75.967-43.69 0-79.62-33.724-83.017-76.448l-.027-.346H.375V8.375h66.323Zm26.819 173.849c.754 16.458 4.261 31.704 10.126 43.625l.574 1.142c4.413 8.596 9.804 14.62 15.441 17.369l.54.264v-62.793H93.499l.018.393Zm39.285 62.4.54-.264c5.637-2.749 11.027-8.76 15.441-17.369 6.198-12.081 9.922-27.79 10.7-44.767l.018-.393h-26.699v62.793Zm-76.675-62.383c2.38 25.112 18.015 46.424 39.836 56.891l1.186.568-.708-1.108c-8.794-13.781-14.584-33.665-15.529-56.402l-.015-.359h-24.81l.04.41Zm115.961-.051c-.945 22.737-6.735 42.621-15.529 56.402l-.708 1.108 1.186-.568c21.821-10.467 37.456-31.779 39.836-56.891l.039-.41h-24.809l-.015.359Zm14.214-160.763c-26.634 0-40.06 7.803-46.795 17.811-6.714 9.976-6.705 22.047-6.705 30.386v23.107l.345.028c40.802 3.23 73.397 35.893 76.406 76.641l.025.348h30.443V21.427h-53.719ZM12.98 169.264h30.476l.027-.346c3.227-40.531 35.725-72.941 76.37-76.16l.345-.027V69.14c0-8.34.009-20.41-6.705-30.386-6.735-10.008-20.161-17.811-46.795-17.812H12.98v148.322Zm82.983-57.301c-21.82 10.467-37.456 31.779-39.836 56.891l-.04.41h24.81l.015-.36c.945-22.736 6.736-42.62 15.53-56.401l.707-1.109-1.186.569Zm23.695-5.23c-5.637 2.75-11.027 8.762-15.441 17.371-6.198 12.08-9.922 27.79-10.7 44.767l-.018.393h26.699v-62.793l-.54.262Zm13.144 62.531h26.699l-.018-.393c-.778-16.989-4.49-32.686-10.7-44.767-4.413-8.597-9.804-14.621-15.441-17.371l-.54-.262v62.793Zm23.768-56.761c8.794 13.781 14.585 33.665 15.53 56.401l.015.36h24.809l-.038-.41c-2.38-25.112-18.016-46.424-39.837-56.891l-1.186-.569.707 1.109Zm530.782 30.122v3.153h-5.531v15.597h-3.666v-15.597h-5.53v-3.153h14.727Zm7.985 0 .093.24 4.92 12.76 4.84-12.758.092-.242h5.093v18.75h-3.665v-13.611l-5.149 13.371-.092.24h-2.359l-.092-.24-5.15-13.371v13.611h-3.665v-18.75h5.134Z"/></svg>